<?xml version="1.0" standalone="no"?>
<!DOCTYPE svg PUBLIC "-//W3C//DTD SVG 20010904//EN"
 "http://www.w3.org/TR/2001/REC-SVG-20010904/DTD/svg10.dtd">
<svg version="1.0" xmlns="http://www.w3.org/2000/svg"
 width="300.000000pt" height="300.000000pt" viewBox="0 0 300.000000 300.000000"
 preserveAspectRatio="xMidYMid meet">
<metadata>
Created by potrace 1.10, written by Peter Selinger 2001-2011
</metadata>
<g transform="translate(0.000000,300.000000) scale(0.100000,-0.100000)"
fill="#000000" stroke="none">
<path d="M1191 2900 c-73 -10 -185 -69 -261 -137 -67 -60 -102 -135 -150 -318
-22 -88 -45 -164 -51 -169 -12 -13 -12 -141 0 -164 5 -9 15 -75 20 -146 27
-312 89 -483 199 -544 49 -27 52 -39 15 -53 -43 -16 -82 -58 -115 -124 -32
-62 -127 -159 -199 -203 -25 -14 -39 -32 -43 -50 -2 -15 -10 -57 -17 -93 -8
-45 -9 -74 -2 -95 l10 -29 16 38 c14 32 53 63 66 51 6 -5 -27 -81 -55 -125
-23 -38 -24 -44 -14 -93 6 -29 26 -84 45 -122 l34 -69 1 55 c3 80 12 102 50
124 l33 20 -7 -25 c-5 -13 -10 -40 -13 -59 l-5 -35 41 39 c22 22 43 37 47 34
3 -4 9 -55 14 -115 4 -68 14 -123 26 -148 13 -29 19 -35 22 -22 7 31 26 13 59
-55 43 -89 54 -94 47 -20 -9 78 1 128 25 135 28 7 53 51 59 103 l5 45 28 -27
c31 -29 37 -50 17 -56 -8 -3 -8 -9 -1 -23 8 -13 8 -27 1 -44 -6 -15 -16 -46
-23 -71 -12 -39 -14 -42 -20 -22 -4 12 -13 22 -20 22 -7 0 -16 6 -19 13 -3 6
-4 1 -2 -13 11 -60 25 -101 44 -125 11 -14 24 -39 27 -55 4 -17 10 -30 14 -30
4 0 38 21 76 46 39 25 90 57 115 71 25 14 75 58 111 97 63 68 67 70 93 58 24
-11 30 -9 66 24 24 22 54 66 74 108 24 51 45 79 73 98 104 73 145 99 153 96 6
-2 -4 -23 -20 -48 -16 -24 -35 -69 -41 -100 -6 -30 -26 -80 -45 -110 -40 -66
-68 -130 -55 -130 26 0 147 81 212 141 55 51 87 73 124 84 70 20 94 40 121
101 13 29 39 75 57 101 42 58 77 127 107 211 12 34 27 62 32 62 11 0 68 -90
68 -109 0 -30 18 5 29 56 8 42 7 60 -6 98 -11 35 -14 69 -11 130 8 118 -16
166 -103 211 -113 59 -129 70 -139 93 -6 14 -44 61 -85 104 l-75 78 1 62 c1
34 8 82 16 106 13 40 12 67 -4 126 -5 19 -4 19 13 2 21 -20 25 -91 11 -162
-14 -66 10 -28 30 47 17 64 17 69 -1 120 -29 82 -30 85 -13 63 20 -25 21 -17
2 27 -8 20 -19 64 -24 99 -6 35 -20 76 -31 91 -11 15 -27 56 -35 90 -17 74
-18 81 -6 74 4 -3 16 -34 26 -68 17 -62 53 -143 60 -136 2 1 -7 35 -21 73 -13
39 -24 80 -24 92 0 12 -25 50 -56 85 -30 35 -66 83 -79 108 -45 87 -224 230
-330 264 -27 8 -86 27 -130 42 -89 29 -188 37 -284 24z m300 -63 c126 -60 272
-216 318 -339 14 -37 -2 -36 -29 2 -37 52 -50 40 -50 -45 0 -75 0 -75 33 -89
17 -8 45 -27 61 -41 l29 -27 -11 -107 c-14 -132 -55 -258 -119 -359 -95 -153
-242 -295 -391 -379 -65 -37 -70 -38 -182 -41 -103 -4 -121 -2 -163 18 -57 27
-102 76 -134 147 -20 43 -22 57 -13 68 14 17 6 46 -12 43 -18 -4 -45 150 -58
337 -15 213 -15 231 9 311 11 38 31 116 46 173 14 58 36 123 49 146 26 43 107
124 145 145 21 11 22 10 17 -9 -3 -12 -9 -30 -12 -41 -6 -22 14 -28 33 -9 6 6
35 17 65 24 l53 12 0 43 c0 55 13 60 146 56 86 -2 103 -6 170 -39z m-351 -8
c0 -11 -4 -17 -10 -14 -6 4 -19 4 -28 0 -15 -6 -15 -8 3 -15 17 -7 14 -9 -12
-9 -37 -1 -42 13 -16 41 23 25 63 24 63 -3z m518 -42 c52 -31 114 -90 124
-118 3 -8 9 -11 13 -6 5 4 3 13 -3 19 -7 7 -12 17 -12 22 0 15 87 -72 121
-121 25 -36 27 -43 13 -43 -15 0 -15 -2 -2 -17 17 -21 23 -73 8 -73 -5 0 -12
11 -16 25 -3 13 -13 30 -22 37 -17 14 -17 14 4 -37 5 -12 2 -14 -12 -8 -18 6
-18 6 -1 -14 18 -21 23 -53 8 -53 -15 0 -29 23 -41 70 -30 114 -115 235 -223
316 -69 52 -46 52 41 1z m159 -357 c10 -20 10 -28 -1 -39 -20 -19 -34 -6 -28
26 5 25 4 27 -11 14 -15 -12 -17 -11 -17 8 0 31 40 24 57 -9z m167 -27 c19
-56 20 -67 4 -57 -8 5 -9 2 -4 -12 12 -27 25 -86 26 -107 0 -31 -19 -8 -26 31
-3 20 -14 67 -25 103 -23 79 -23 89 -5 89 8 0 21 -21 30 -47z m-29 -73 c9 -28
15 -56 12 -63 -6 -18 -47 67 -47 98 0 38 16 22 35 -35z m-64 3 c6 -21 21 -49
31 -63 18 -23 18 -25 2 -37 -21 -16 -34 -17 -35 -3 -1 6 -3 15 -4 20 -1 6 -3
23 -4 38 0 16 -10 39 -21 52 -25 28 -25 30 -1 30 14 0 23 -11 32 -37z m169
-105 c20 -34 27 -106 12 -123 -5 -6 -17 -44 -26 -87 -22 -96 -99 -208 -144
-208 -10 0 -8 7 7 26 23 29 20 44 -10 44 -10 0 -19 5 -19 10 0 6 -8 10 -17 10
-15 -1 -15 -3 5 -20 32 -26 10 -34 -23 -8 -21 16 -29 18 -35 8 -10 -17 -31 -4
-23 15 3 8 18 15 33 15 15 0 33 7 40 15 7 8 23 15 37 15 20 0 23 -3 17 -22 -6
-21 -6 -21 24 3 17 13 35 37 41 53 14 36 14 36 -3 36 -8 0 -16 12 -18 27 -2
22 -10 29 -40 36 -42 10 -47 21 -21 49 20 23 9 36 -17 20 -16 -10 -20 -10 -20
2 0 16 24 38 33 30 3 -3 16 1 29 10 34 24 82 20 118 -10 l31 -27 -7 29 c-3 16
-13 39 -20 51 -15 24 -17 33 -9 33 3 0 14 -15 25 -32z m-184 -207 c2 -41 -2
-53 -22 -72 -33 -31 -48 -11 -28 37 8 18 14 40 14 49 0 17 22 46 29 39 3 -2 6
-26 7 -53z m218 37 c7 -27 7 -78 -1 -60 -2 6 -9 12 -14 12 -4 0 -6 -6 -3 -14
3 -8 1 -17 -5 -21 -12 -7 -14 12 -5 68 7 42 19 48 28 15z m-173 -48 c6 -16 18
-30 26 -30 22 0 10 -25 -14 -28 -16 -2 -23 5 -32 29 -6 18 -11 38 -11 45 0 25
21 14 31 -16z m149 -126 c0 -30 -4 -54 -9 -54 -11 0 -24 82 -15 103 12 31 24
6 24 -49z m-280 -53 c0 -9 6 -26 14 -37 13 -16 18 -17 35 -6 24 14 91 16 91 3
0 -6 -4 -13 -10 -16 -18 -11 -11 -68 15 -123 26 -56 31 -88 16 -111 -12 -19
-31 -5 -31 23 0 32 -20 86 -32 86 -5 0 -7 -8 -4 -17 26 -95 18 -136 -37 -194
-70 -76 -148 -171 -143 -176 7 -7 86 56 86 67 0 10 69 60 82 60 17 0 6 -20
-36 -66 -24 -27 -52 -67 -64 -89 -24 -49 -48 -71 -138 -133 -51 -35 -77 -61
-101 -102 -72 -126 -84 -140 -110 -140 -14 0 -62 -7 -107 -17 -133 -27 -170
-11 -226 97 -16 30 -29 49 -30 43 0 -22 -16 -14 -28 12 -16 35 -15 48 3 41 20
-7 19 7 -6 56 -30 59 -50 165 -39 211 9 44 15 52 28 43 20 -12 72 -116 72
-144 0 -29 24 -72 41 -72 6 0 7 5 3 12 -4 6 -9 42 -10 80 -3 57 -8 75 -29 100
-31 37 -22 58 11 27 23 -21 28 -22 69 -11 59 16 80 15 115 -3 34 -17 37 -36
15 -88 -8 -20 -15 -48 -15 -61 0 -14 -16 -62 -36 -106 -19 -45 -34 -86 -32
-92 5 -13 90 120 107 165 6 16 11 38 11 50 1 27 121 162 139 156 8 -3 2 -18
-19 -48 -17 -23 -29 -45 -27 -47 3 -3 25 13 50 34 25 22 57 42 71 46 15 4 57
29 94 56 37 27 69 45 70 39 2 -5 -12 -29 -32 -54 -20 -24 -50 -71 -67 -105
-18 -33 -40 -65 -50 -71 -11 -5 -19 -14 -19 -20 0 -5 -12 -27 -26 -49 -50 -75
-16 -52 54 37 39 48 95 112 125 140 46 45 60 67 89 145 40 105 52 158 37 158
-5 0 -23 -29 -39 -64 -27 -58 -60 -102 -60 -79 0 5 14 35 31 66 43 80 21 71
-27 -10 -36 -63 -100 -123 -131 -123 -25 0 -13 18 41 64 54 47 162 201 147
211 -5 2 -21 -14 -36 -38 -48 -72 -123 -154 -155 -167 -39 -16 -50 -6 -21 21
27 26 21 35 -11 18 -12 -7 -27 -12 -31 -11 -4 1 -24 -10 -43 -24 -36 -28 -57
-26 -33 3 9 11 10 14 2 9 -7 -4 -13 -3 -13 3 0 5 9 13 20 16 22 7 180 162 180
176 0 5 5 9 10 9 18 0 11 -20 -30 -82 -44 -66 -46 -81 -5 -52 26 19 108 174
92 174 -12 0 2 39 31 82 25 38 42 42 42 9z m69 13 c22 -16 22 -18 6 -27 -14
-7 -21 -5 -32 9 -26 35 -13 45 26 18z m175 -31 c9 -26 16 -64 16 -86 0 -36 -2
-39 -22 -33 -13 3 -37 6 -55 6 -27 0 -32 4 -38 31 -7 31 1 51 13 33 46 -68 66
-72 32 -5 -11 23 -16 41 -11 41 13 0 31 -25 40 -57 7 -23 10 -25 16 -11 4 11
-1 34 -15 59 -20 40 -21 69 -1 69 5 0 16 -21 25 -47z m-6 -148 c22 -5 37 -16
47 -35 8 -16 31 -41 51 -57 20 -15 45 -46 54 -69 19 -44 63 -80 155 -127 90
-45 116 -96 108 -208 -3 -31 2 -79 11 -113 16 -60 13 -86 -5 -53 -22 38 -54
55 -169 91 -127 39 -180 72 -180 111 0 18 -4 21 -25 17 -17 -3 -25 0 -25 9 -1
20 -83 59 -124 59 -39 0 -47 -8 -86 -88 -24 -51 -35 -62 -67 -73 -39 -12 -160
-99 -179 -128 -5 -9 -16 -35 -24 -59 -8 -24 -27 -55 -46 -70 -61 -52 -149
-119 -184 -140 -41 -24 -89 -72 -72 -72 6 0 14 4 17 10 10 16 128 78 171 89
23 6 53 20 67 31 14 11 39 20 55 20 22 0 46 15 91 55 34 30 67 55 73 55 6 0
48 36 93 81 78 76 84 79 96 61 15 -20 59 -36 59 -22 0 5 -5 21 -12 35 -9 20
-9 28 1 38 10 9 18 6 38 -17 22 -26 26 -28 35 -13 13 23 38 21 38 -3 0 -17 7
-20 40 -20 22 0 40 -4 40 -8 0 -5 -19 -24 -41 -42 -36 -29 -43 -31 -51 -17
-13 24 -34 10 -52 -33 -10 -26 -24 -41 -45 -48 -17 -6 -31 -16 -31 -22 0 -14
-60 -50 -84 -50 -26 0 -116 -47 -150 -78 -16 -15 -49 -70 -73 -122 -44 -92
-68 -130 -84 -130 -4 0 -3 16 3 36 5 20 8 38 6 40 -10 9 -134 -119 -157 -163
-15 -27 -41 -57 -60 -68 -54 -32 -91 -71 -97 -104 -6 -28 -49 -80 -58 -70 -7
7 40 167 54 184 10 13 9 15 -9 15 -24 0 -26 9 -8 53 19 45 17 132 -3 132 -16
0 -15 33 1 50 5 5 9 19 9 31 0 15 27 45 88 97 48 42 107 93 130 114 26 22 58
64 77 103 34 67 43 76 218 204 24 18 47 47 61 80 24 53 166 214 166 187 0 -11
3 -11 15 -1 13 10 18 6 35 -31 11 -24 20 -50 20 -57 0 -8 8 -27 17 -43 13 -22
24 -29 43 -28 14 2 36 -3 49 -10 21 -12 23 -11 18 3 -8 19 0 16 51 -22 18 -14
36 -21 40 -17 4 4 -4 15 -18 24 -14 9 -48 35 -77 59 -29 23 -53 37 -53 31 0
-8 -5 -8 -15 1 -9 7 -18 10 -22 6 -4 -4 -17 22 -30 56 -36 95 -43 120 -43 154
0 17 -11 48 -25 68 -29 43 -32 59 -7 52 9 -2 32 -7 50 -11z m-50 -176 c1 -8
-12 -23 -30 -34 -49 -29 -51 -29 -38 -4 28 54 61 73 68 38z m-530 -41 c9 -9
19 -9 46 0 41 15 64 7 72 -25 9 -36 -9 -47 -76 -48 -52 0 -62 -3 -92 -32 l-33
-32 -38 35 c-21 20 -36 38 -33 42 11 11 121 71 132 71 5 1 15 -4 22 -11z
m-468 -106 c0 -4 -16 -29 -35 -56 -19 -27 -35 -57 -34 -65 0 -11 2 -12 6 -3 2
6 9 12 15 12 13 0 5 -83 -11 -125 -11 -27 -13 -28 -23 -12 -9 18 -11 18 -25
-3 -8 -11 -13 -27 -10 -34 3 -7 1 -19 -3 -26 -13 -21 0 -34 14 -14 7 9 29 22
48 29 l36 12 17 -44 c10 -24 31 -54 50 -69 19 -14 45 -41 60 -60 35 -46 11
-45 -45 1 -23 19 -43 35 -45 35 -6 0 1 -45 8 -57 4 -7 0 -13 -10 -16 -21 -5
-15 -7 55 -26 42 -12 58 -31 25 -31 -11 0 -4 -9 20 -25 43 -30 47 -42 13 -47
-24 -3 -23 -4 21 -62 64 -83 76 -123 74 -236 -2 -100 -43 -301 -55 -267 -3 9
-8 23 -10 31 -3 7 4 51 15 97 38 172 15 288 -79 381 -26 26 -61 63 -79 83 -22
25 -40 35 -61 35 -38 0 -140 36 -165 58 -25 22 -47 73 -47 111 0 61 -40 47
-71 -25 -9 -23 -22 -45 -28 -48 -6 -4 -11 -6 -11 -4 1 2 9 32 19 68 15 55 23
68 52 85 61 36 175 161 189 208 16 53 110 147 110 109z m993 -103 c40 -21 107
-80 107 -95 0 -16 -55 -20 -65 -4 -10 17 -33 11 -61 -15 -15 -14 -35 -25 -46
-25 -10 0 -52 -31 -93 -70 -41 -38 -78 -70 -82 -70 -5 0 -35 -22 -68 -50 -60
-51 -106 -68 -85 -32 5 9 19 38 29 63 21 50 93 113 182 157 36 18 53 36 74 75
16 29 32 58 38 65 12 15 41 16 70 1z m346 -205 c51 -11 45 -27 -91 -220 -96
-136 -139 -183 -197 -218 -32 -20 -64 -36 -70 -36 -18 0 -13 42 9 78 22 36 19
52 -11 52 -14 0 -19 7 -19 25 0 19 34 59 134 160 74 74 149 142 168 150 39 17
37 17 77 9z m-338 -199 c-39 -41 -71 -80 -71 -85 0 -6 -20 -19 -44 -30 -24
-10 -78 -44 -120 -75 -42 -31 -76 -52 -76 -47 0 19 40 98 60 120 32 34 92 69
141 82 24 7 60 24 79 38 48 37 94 70 99 71 2 1 -29 -33 -68 -74z m-815 -10
c37 -19 130 -19 184 0 55 19 57 19 35 -5 -10 -11 -21 -20 -26 -20 -4 0 -36
-29 -72 -65 -36 -36 -69 -65 -75 -65 -5 0 -12 16 -15 36 -3 20 -14 46 -24 57
-14 15 -15 21 -5 25 10 3 7 8 -9 16 -12 6 -24 17 -27 24 -5 16 0 15 34 -3z
m-411 -24 c18 -16 56 -34 83 -41 l50 -13 1 -74 c1 -78 -6 -86 -41 -53 -12 10
-25 17 -30 14 -5 -4 -20 4 -33 16 -26 25 -55 21 -92 -12 -26 -24 -39 -18 -46
19 -4 20 5 50 29 101 19 39 37 72 41 72 3 0 20 -13 38 -29z m208 -88 c8 -10
25 -39 36 -65 11 -26 29 -56 41 -68 17 -17 20 -31 18 -72 -3 -56 -19 -72 -35
-36 -11 22 -12 22 -28 -17 -10 -22 -21 -50 -26 -62 -14 -38 -26 -26 -32 33 -3
30 -13 66 -21 79 -22 33 -20 51 6 69 21 15 21 16 6 86 -14 65 -13 70 2 70 9 0
24 -8 33 -17z m956 -110 c-4 -22 3 -41 21 -61 25 -27 18 -41 -49 -94 -56 -46
-80 -50 -54 -11 19 28 43 90 43 110 0 22 19 63 30 63 5 0 9 -3 9 -7z m-286
-100 c-18 -46 -62 -83 -107 -92 -25 -5 -57 -16 -71 -25 -14 -9 -25 -13 -25 -8
0 12 29 53 64 90 25 27 36 31 58 27 20 -5 36 -1 54 14 31 24 38 23 27 -6z
m-243 -193 c-9 -17 -58 -50 -75 -50 -17 0 0 23 33 44 46 30 56 32 42 6z"/>
<path d="M1264 2825 c-4 -9 -2 -21 4 -27 15 -15 44 -1 40 19 -4 23 -36 29 -44
8z"/>
<path d="M1274 2735 c-4 -9 -2 -21 4 -27 15 -15 44 -1 40 19 -4 23 -36 29 -44
8z"/>
<path d="M1540 2695 c0 -22 38 -39 56 -24 11 9 12 15 3 25 -15 19 -59 18 -59
-1z"/>
<path d="M897 2653 c-13 -12 -7 -23 13 -23 11 0 20 7 20 15 0 15 -21 21 -33 8z"/>
<path d="M1284 2645 c-8 -21 2 -45 19 -45 8 0 20 7 27 15 10 12 10 18 0 30 -7
8 -19 15 -27 15 -7 0 -16 -7 -19 -15z"/>
<path d="M1133 2613 c-15 -5 -17 -39 -4 -47 16 -10 41 5 41 24 0 19 -17 30
-37 23z"/>
<path d="M1620 2585 c0 -20 39 -40 52 -27 6 6 8 18 5 26 -8 20 -57 21 -57 1z"/>
<path d="M875 2574 c-25 -25 -2 -43 25 -19 19 17 19 35 0 35 -5 0 -16 -7 -25
-16z"/>
<path d="M1527 2563 c-9 -8 22 -43 39 -43 20 0 27 19 14 35 -13 16 -42 20 -53
8z"/>
<path d="M960 2540 c-12 -7 -12 -13 -4 -27 16 -26 39 -22 39 6 0 27 -13 35
-35 21z"/>
<path d="M1165 2526 c-22 -8 -69 -27 -105 -44 -36 -16 -91 -37 -122 -46 -31
-9 -59 -20 -62 -24 -2 -4 35 -7 83 -7 81 0 90 2 120 28 46 38 114 77 164 92
l42 14 -40 0 c-22 0 -58 -6 -80 -13z"/>
<path d="M854 2475 c-3 -8 -3 -19 0 -24 10 -16 36 -1 36 20 0 22 -28 26 -36 4z"/>
<path d="M1244 2471 c-121 -55 -88 -177 52 -189 51 -4 55 -3 89 31 39 39 44
70 19 118 -15 30 -66 59 -101 59 -10 0 -37 -9 -59 -19z m96 -36 c39 -20 47
-51 22 -84 -16 -21 -28 -26 -60 -25 -47 1 -92 27 -92 53 0 21 25 46 60 60 34
13 37 13 70 -4z"/>
<path d="M857 2329 c-58 -34 -62 -187 -6 -204 31 -10 57 13 77 67 35 96 35 96
8 123 -27 27 -50 31 -79 14z m49 -52 c7 -20 -21 -92 -37 -92 -22 0 -24 63 -3
86 20 22 33 24 40 6z"/>
<path d="M1090 2319 c-12 -21 -5 -75 11 -84 5 -4 9 18 9 49 0 61 -3 67 -20 35z"/>
<path d="M990 2273 c0 -11 -3 -35 -6 -52 -4 -19 -2 -31 4 -31 15 0 26 80 13
93 -8 8 -11 5 -11 -10z"/>
<path d="M1287 2203 c-4 -3 5 -15 19 -26 35 -27 170 -189 189 -227 9 -17 19
-30 24 -30 4 0 13 25 20 56 12 50 11 57 -6 76 -45 50 -232 165 -246 151z"/>
<path d="M1663 2194 c-8 -22 10 -49 33 -49 25 0 31 35 8 52 -24 17 -33 16 -41
-3z"/>
<path d="M1120 2188 c0 -9 4 -19 9 -23 19 -11 22 -63 6 -94 -18 -36 -4 -42 19
-9 24 34 20 82 -9 115 -19 21 -24 24 -25 11z"/>
<path d="M1515 2180 c-10 -17 5 -49 25 -55 42 -13 55 24 18 49 -26 19 -35 20
-43 6z"/>
<path d="M967 2133 c-14 -13 -7 -82 9 -98 21 -21 29 -13 14 15 -7 12 -10 38
-8 56 4 33 -1 42 -15 27z"/>
<path d="M1017 2093 c-12 -12 -7 -50 8 -63 23 -19 65 -4 65 23 0 13 -5 28 -12
35 -13 13 -50 16 -61 5z"/>
<path d="M1605 2080 c-10 -16 14 -50 35 -50 28 0 34 19 14 41 -19 21 -39 25
-49 9z"/>
<path d="M884 2024 c-9 -21 -25 -81 -36 -133 -19 -94 -19 -95 1 -114 19 -20
19 -19 26 39 4 33 13 99 20 149 8 49 12 92 9 94 -2 2 -11 -13 -20 -35z"/>
<path d="M1303 1945 c-6 -18 23 -55 44 -55 25 0 28 32 4 52 -28 22 -40 23 -48
3z"/>
<path d="M1587 1943 c-22 -21 12 -73 47 -73 30 0 31 31 2 57 -28 24 -38 27
-49 16z"/>
<path d="M1150 1910 c0 -33 24 -50 42 -32 8 8 8 18 0 37 -16 36 -42 33 -42 -5z"/>
<path d="M980 1885 c-18 -22 14 -72 36 -54 19 16 18 33 -5 53 -16 15 -20 15
-31 1z"/>
<path d="M1434 1866 c-9 -24 15 -58 39 -54 25 3 34 32 17 53 -16 19 -49 19
-56 1z"/>
<path d="M1196 1794 c-20 -19 -20 -25 -2 -50 12 -15 18 -17 33 -8 26 16 28 50
4 63 -15 8 -23 7 -35 -5z"/>
<path d="M904 1786 c-8 -22 3 -49 19 -43 6 2 12 14 12 27 0 27 -22 39 -31 16z"/>
<path d="M1003 1734 c-7 -20 8 -48 29 -52 20 -4 31 25 18 49 -13 23 -38 25
-47 3z"/>
<path d="M891 1651 c-8 -14 -7 -22 3 -30 17 -14 39 9 30 33 -8 21 -21 20 -33
-3z"/>
<path d="M1224 1618 c-7 -22 19 -52 40 -45 17 6 29 34 23 51 -10 24 -54 21
-63 -6z"/>
<path d="M1057 1594 c-12 -12 -8 -41 9 -54 22 -19 54 12 38 38 -12 19 -36 27
-47 16z"/>
<path d="M1956 2147 c-53 -30 -57 -47 -12 -47 29 0 36 4 36 20 0 11 7 20 15
20 9 0 15 -10 15 -26 0 -14 5 -34 10 -45 16 -29 -24 -133 -64 -164 -22 -18
-26 -25 -14 -25 10 0 26 9 36 20 22 24 62 135 62 173 0 15 5 27 10 27 6 0 10
7 10 16 0 8 -4 12 -10 9 -5 -3 -10 1 -10 9 0 12 -28 37 -42 36 -2 0 -21 -10
-42 -23z"/>
<path d="M1744 1785 c-4 -8 -4 -25 -1 -38 4 -14 -7 -47 -33 -96 -22 -41 -38
-77 -35 -79 2 -2 21 22 41 54 30 46 39 71 42 117 4 55 -2 74 -14 42z"/>
<path d="M1462 1217 c-27 -20 -38 -33 -30 -38 7 -5 1 -20 -22 -49 -22 -28 -34
-55 -36 -82 -2 -22 -13 -56 -24 -75 -22 -38 -24 -43 -12 -43 12 0 72 86 65 93
-3 4 0 13 6 21 7 8 11 20 9 28 -1 7 9 29 25 49 15 20 27 41 27 48 0 6 10 25
22 41 12 16 20 31 17 33 -2 2 -23 -10 -47 -26z"/>
<path d="M2094 1510 c3 -22 22 -62 41 -89 40 -55 42 -63 18 -55 -10 3 7 -17
37 -44 37 -34 56 -46 58 -36 4 16 14 18 28 5 5 -5 24 -6 43 -4 l34 6 -24 18
c-33 25 -20 32 22 11 19 -10 41 -32 51 -52 11 -22 17 -28 18 -17 1 52 -81 118
-125 101 -18 -7 -89 61 -120 114 -11 17 -23 32 -28 32 -4 0 -6 -3 -4 -7 15
-29 47 -104 47 -110 0 -21 -62 87 -71 125 -15 54 -34 56 -25 2z"/>
</g>
</svg>
