<?xml version="1.0" standalone="no"?>
<!DOCTYPE svg PUBLIC "-//W3C//DTD SVG 20010904//EN"
 "http://www.w3.org/TR/2001/REC-SVG-20010904/DTD/svg10.dtd">
<svg version="1.0" xmlns="http://www.w3.org/2000/svg"
 width="259.000000pt" height="194.000000pt" viewBox="0 0 259.000000 194.000000"
 preserveAspectRatio="xMidYMid meet">
<metadata>
Created by potrace 1.10, written by Peter Selinger 2001-2011
</metadata>
<g transform="translate(0.000000,194.000000) scale(0.100000,-0.100000)"
fill="#000000" stroke="none">
<path d="M1270 1873 c0 -36 -40 -80 -110 -120 -57 -32 -100 -72 -100 -92 -1
-12 -5 -11 -19 6 -59 70 -145 82 -243 32 -40 -20 -71 -29 -90 -27 -36 6 -36
-7 0 -26 20 -11 22 -15 9 -16 -10 0 -27 5 -38 10 -11 6 -19 7 -19 1 0 -5 7
-11 15 -15 24 -9 17 -23 -14 -29 -17 -4 -58 -33 -97 -69 -62 -58 -86 -90 -154
-202 l-23 -39 29 5 c16 3 37 9 48 13 16 7 17 6 7 -14 -17 -32 -90 -81 -120
-81 -19 0 -22 -3 -13 -12 17 -17 15 -28 -5 -28 -15 0 -16 -2 -3 -10 8 -5 37
-10 64 -10 47 0 48 0 41 -27 -3 -15 -11 -64 -16 -109 -5 -50 -20 -108 -38
-150 -16 -38 -37 -108 -46 -155 l-17 -85 28 -69 c35 -82 57 -98 42 -30 -6 28
-6 55 0 73 8 25 10 24 16 -23 11 -74 21 -85 37 -39 l12 39 9 -33 c5 -20 5 -39
-2 -51 -24 -47 -4 -159 40 -221 11 -16 27 -46 34 -67 l13 -37 7 28 7 27 47
-50 c51 -54 78 -66 67 -29 -6 17 -4 20 9 15 25 -10 20 22 -14 89 -16 32 -27
61 -24 63 11 11 44 -45 63 -104 18 -58 19 -59 20 -22 1 57 23 47 61 -29 l19
-39 1 40 1 40 19 -35 19 -35 1 32 c0 17 -4 43 -10 57 -11 31 -7 32 30 6 15
-11 61 -31 101 -46 41 -15 108 -46 149 -70 127 -73 214 -80 301 -24 30 18 83
49 118 67 35 18 73 40 84 50 20 18 20 17 12 -7 -4 -14 -9 -43 -11 -65 l-5 -40
18 30 17 30 6 -35 6 -35 16 35 c8 19 25 44 37 54 l21 19 0 -44 1 -44 22 67
c21 61 54 114 64 104 3 -2 -5 -23 -17 -47 -29 -56 -51 -119 -42 -119 5 0 14 6
21 13 11 10 12 7 7 -17 l-7 -29 28 18 c15 10 42 34 60 54 l32 36 1 -60 1 -60
14 38 c14 38 54 95 67 96 4 1 4 -6 1 -16 -4 -10 -2 -14 5 -10 6 4 13 21 17 37
6 28 8 29 28 15 32 -22 34 -20 27 37 -8 62 10 180 45 291 14 43 28 109 31 147
7 67 7 68 28 55 11 -7 39 -17 61 -21 l40 -7 -50 49 c-72 71 -107 148 -115 254
-8 113 -52 212 -119 268 -34 29 -51 53 -60 84 -47 156 -127 256 -262 323 -41
21 -87 48 -102 61 -39 33 -101 47 -178 42 l-66 -5 16 30 c12 22 13 31 4 34 -7
3 -13 12 -13 21 -1 10 -8 1 -17 -18 l-16 -35 -7 33 c-10 45 -20 52 -20 15z
m88 -127 c-52 -25 -138 -92 -138 -107 0 -6 15 1 33 14 45 35 108 65 156 76 66
14 56 0 -20 -30 -68 -27 -119 -62 -119 -82 0 -5 10 -2 23 7 89 66 219 91 318
63 52 -15 99 -50 86 -63 -3 -3 -39 4 -79 15 -87 25 -131 26 -186 7 -42 -15
-95 -46 -89 -52 2 -2 32 6 67 18 59 19 71 20 150 10 104 -14 172 -36 196 -64
19 -21 19 -21 -6 -14 -14 4 -50 10 -80 12 l-55 5 60 -25 c46 -20 79 -45 143
-110 45 -46 82 -87 82 -91 0 -3 -9 -3 -20 0 -11 4 -20 2 -20 -4 0 -6 4 -11 9
-11 4 0 38 -27 74 -61 85 -77 125 -154 133 -254 5 -65 4 -69 -11 -50 -8 11
-28 61 -44 112 -27 88 -33 97 -98 161 -37 38 -95 98 -128 134 -63 69 -126 108
-172 108 -25 0 -22 -4 26 -30 117 -65 172 -127 259 -297 28 -54 67 -125 87
-158 47 -78 62 -133 69 -247 l6 -93 -13 60 c-7 33 -28 98 -47 145 -32 77 -35
82 -38 52 -2 -18 9 -70 25 -115 51 -149 33 -298 -44 -380 -36 -37 -7 -37 38 0
l32 27 -7 -65 c-7 -78 -31 -152 -53 -171 -15 -11 -16 -10 -9 12 18 58 17 74
-2 34 -23 -48 -50 -72 -38 -33 14 43 19 136 7 119 -6 -8 -11 -24 -11 -35 0
-22 -41 -110 -64 -139 -31 -39 -29 -3 7 103 20 60 37 113 37 119 0 7 19 31 43
54 46 47 63 89 72 183 7 67 -8 58 -20 -12 -8 -53 -53 -123 -94 -146 -17 -10
-31 -13 -31 -8 0 6 5 11 10 11 11 0 70 87 70 102 0 5 -17 -9 -38 -32 -22 -22
-48 -40 -60 -40 -18 0 -14 7 25 43 51 46 82 105 83 153 0 18 -20 70 -45 120
-25 48 -45 96 -45 105 0 10 -4 21 -10 24 -18 11 -11 -52 15 -132 35 -110 33
-163 -6 -208 -33 -37 -66 -48 -54 -17 19 49 24 139 10 207 -10 46 -14 119 -12
210 2 138 2 141 -32 224 -38 93 -80 144 -173 205 -74 49 -132 56 -224 26 -38
-12 -73 -27 -79 -33 -7 -7 -5 -8 6 -4 9 3 49 11 90 18 64 10 81 10 129 -4 80
-24 112 -47 159 -117 56 -85 74 -152 69 -257 -5 -91 -28 -142 -28 -63 0 25 -9
65 -20 89 -22 48 -38 52 -19 5 6 -16 13 -96 15 -179 4 -137 3 -147 -11 -120
-8 17 -14 56 -15 88 0 36 -4 56 -10 52 -12 -8 -13 -77 0 -130 12 -55 4 -57
-19 -4 -13 30 -22 80 -26 159 -4 63 -14 130 -21 149 -18 44 -12 49 16 14 22
-28 22 -28 15 -3 -15 55 -79 180 -104 204 -30 29 -100 61 -153 71 -47 9 -137
-17 -177 -51 -34 -28 -38 -21 -17 29 12 30 76 95 122 124 11 8 2 7 -21 -2 -22
-8 -60 -36 -84 -61 -24 -25 -45 -43 -48 -41 -20 21 62 127 152 195 28 21 27
21 -22 -3 -59 -28 -116 -83 -145 -138 -11 -22 -22 -37 -25 -34 -11 12 22 82
64 134 24 30 36 50 26 45 -22 -13 -76 -70 -91 -97 -11 -20 -11 -20 -11 0 -1
28 31 94 62 131 38 45 33 54 -8 14 -48 -46 -75 -110 -81 -188 -5 -64 -4 -66
10 -37 l14 30 1 -54 c1 -50 2 -53 16 -35 14 18 14 17 15 -14 0 -41 19 -49 79
-32 114 31 132 32 188 5 85 -42 127 -107 163 -252 17 -70 18 -77 2 -109 -8
-19 -22 -34 -30 -34 -11 0 -12 -3 -3 -14 9 -11 8 -18 -5 -31 -9 -9 -18 -33
-19 -53 -1 -20 -7 -38 -12 -39 -5 -2 -7 -17 -5 -33 4 -25 -2 -37 -32 -64 -54
-52 -136 -79 -216 -73 -92 8 -141 28 -162 65 -14 25 -15 32 -3 42 14 12 31 -3
21 -19 -4 -5 3 -7 15 -4 14 4 22 0 25 -14 4 -15 12 -18 40 -15 30 4 32 6 18
16 -13 10 -14 17 -5 34 7 13 8 22 2 22 -5 0 -13 -9 -16 -20 -7 -22 -13 -24
-34 -11 -8 5 -11 16 -8 25 4 9 2 16 -3 16 -6 0 -10 -6 -10 -12 0 -9 -4 -8 -10
2 -15 23 -12 40 6 33 14 -5 15 -3 5 14 -8 16 -7 24 7 35 9 9 23 13 30 11 7 -3
10 1 6 10 -7 20 16 33 28 16 7 -10 8 -6 4 12 -7 32 2 43 22 26 13 -10 14 -9 5
7 -8 14 -8 29 0 50 13 40 14 41 32 26 22 -18 30 -6 10 14 -21 20 -13 48 11 39
14 -5 15 -3 5 14 -13 26 7 47 35 36 17 -6 18 -5 4 11 -13 16 -12 20 5 32 15
11 21 11 34 1 12 -10 14 -9 8 5 -4 12 3 24 21 37 18 14 22 20 11 21 -8 0 -24
-6 -34 -14 -10 -7 -26 -11 -36 -9 -12 3 -17 -1 -16 -13 1 -10 -8 -23 -20 -29
-13 -7 -20 -15 -17 -18 12 -12 -18 -38 -37 -32 -21 7 -35 -11 -14 -19 23 -9 6
-36 -24 -36 -24 -1 -25 -2 -8 -14 19 -15 14 -46 -8 -46 -8 0 -11 -8 -8 -21 5
-19 3 -20 -18 -14 -21 7 -22 6 -10 -9 17 -20 -1 -46 -33 -47 -11 0 -15 -3 -8
-6 21 -8 -6 -33 -35 -33 -21 0 -23 -2 -13 -15 10 -12 6 -22 -20 -56 -31 -38
-36 -40 -69 -34 -20 4 -42 11 -48 17 -16 13 -17 38 -2 38 5 0 7 5 4 10 -4 6
-11 7 -17 4 -6 -4 -17 1 -25 12 -12 16 -11 20 9 31 23 12 23 12 2 13 -23 0
-43 32 -25 38 17 6 13 22 -4 22 -22 0 -30 27 -14 47 12 15 12 16 -3 10 -19 -7
-26 17 -8 28 5 3 10 11 10 16 0 6 -5 7 -11 3 -6 -3 -14 -2 -18 4 -4 6 -11 -8
-17 -32 -8 -37 -8 -43 5 -38 10 4 13 1 9 -9 -3 -8 -9 -25 -13 -39 -7 -24 -7
-25 10 -5 16 19 16 19 10 -8 -4 -19 -2 -26 5 -22 17 10 11 -27 -7 -48 -17 -19
-17 -19 5 -13 34 11 29 -30 -8 -62 -31 -27 -39 -59 -19 -79 14 -14 2 -36 -13
-27 -6 4 -8 3 -5 -3 4 -5 -3 -20 -14 -32 -11 -12 -18 -25 -15 -30 3 -4 1 -23
-4 -42 -9 -33 -8 -33 7 -12 8 13 22 23 30 23 13 0 13 3 3 15 -10 12 -10 18 0
30 7 8 16 12 21 9 5 -3 9 0 9 5 0 17 66 13 80 -4 7 -8 20 -15 28 -15 14 0 14
1 0 13 -17 12 -58 76 -58 90 0 4 11 7 25 7 21 0 25 -5 25 -31 0 -20 10 -40 29
-60 39 -39 83 -39 120 -1 16 15 33 26 40 24 20 -7 12 -20 -26 -43 -30 -19 -50
-23 -107 -22 -44 1 -64 -2 -55 -8 8 -5 24 -9 37 -9 25 0 31 -27 7 -36 -8 -4
-15 -11 -15 -16 0 -6 7 -8 15 -4 18 6 39 -29 31 -51 -4 -10 -2 -13 8 -10 8 3
22 0 31 -7 15 -11 15 -13 -4 -30 -27 -25 -26 -45 4 -78 33 -38 38 -35 13 8
l-22 37 60 53 c32 29 55 53 50 54 -6 0 -20 -10 -33 -22 -20 -19 -26 -20 -49
-9 -21 9 -24 15 -16 23 18 18 14 32 -4 17 -13 -10 -17 -10 -25 2 -6 9 -3 18 8
26 16 12 16 13 0 13 -39 0 -13 18 35 24 31 4 66 17 83 30 30 23 33 24 134 10
34 -5 52 -2 83 16 24 14 43 19 47 13 11 -17 102 -53 135 -53 39 0 114 26 95
32 -8 3 4 13 29 23 36 15 42 21 36 39 l-7 21 23 -20 23 -20 -12 22 c-19 36
-12 40 15 8 l25 -30 -8 30 c-12 45 -6 232 9 294 12 50 13 40 12 -145 0 -110
-3 -209 -8 -221 -4 -12 -19 -26 -34 -31 l-27 -10 28 -7 c34 -9 35 -25 2 -25
-37 0 -30 -14 15 -35 41 -18 42 -29 5 -38 -19 -4 -19 -4 2 -13 l22 -9 -28 -45
c-44 -70 -125 -146 -188 -176 -32 -15 -80 -43 -107 -62 -53 -37 -106 -62 -131
-62 -21 0 -31 30 -14 42 11 7 11 11 2 15 -19 7 -16 34 2 27 8 -4 15 -1 15 5 0
6 -7 11 -15 11 -9 0 -15 9 -15 25 0 21 5 25 29 25 21 0 39 10 63 37 18 21 54
60 81 87 26 27 45 51 42 54 -2 3 -43 -5 -90 -18 -75 -20 -97 -22 -188 -15 -56
4 -111 8 -122 8 -11 1 -23 5 -26 9 -3 5 -12 2 -19 -7 -11 -13 -9 -15 9 -15 27
0 73 -23 91 -45 24 -29 88 -55 133 -55 56 0 91 26 92 66 0 23 5 30 25 33 l25
3 -20 -22 c-11 -12 -20 -32 -20 -43 0 -13 -14 -30 -35 -45 -54 -37 -113 -27
-186 29 -81 63 -106 77 -59 34 63 -58 116 -95 137 -95 25 0 26 -49 1 -51 -17
-1 -17 -2 0 -6 20 -5 23 -29 5 -35 -9 -3 -8 -9 5 -22 56 -56 -30 -33 -144 40
-21 13 -73 37 -117 54 -43 17 -100 44 -125 61 -53 35 -122 109 -144 154 -8 17
-31 40 -51 50 -43 23 -69 79 -48 104 9 12 12 9 14 -12 2 -15 7 -27 11 -27 5 0
6 11 3 25 -6 32 15 60 34 44 9 -8 11 -17 4 -28 -10 -20 -2 -61 12 -61 5 0 8
21 6 47 -2 37 -8 50 -25 59 -21 10 -21 12 -8 30 15 19 15 19 34 -3 18 -22 38
-32 27 -14 -3 4 -1 86 4 182 10 188 28 274 75 343 27 39 17 48 -16 15 -29 -29
-56 -94 -64 -154 -3 -28 -10 -57 -16 -65 -12 -21 -12 81 1 114 13 36 4 33 -15
-5 -9 -17 -19 -62 -22 -99 -8 -91 -23 -80 -23 16 0 92 15 129 71 178 43 38 43
38 14 32 -46 -11 -73 -33 -96 -77 -33 -66 -34 -131 -5 -228 30 -98 33 -166 9
-219 l-17 -37 -6 65 c-13 114 -25 115 -30 3 -4 -76 -9 -107 -21 -118 -15 -15
-16 -10 -11 58 2 43 0 77 -5 80 -6 4 -12 -26 -15 -76 -3 -48 -13 -97 -22 -115
-19 -37 -12 -41 21 -10 l23 21 0 -30 c0 -17 14 -56 30 -87 31 -57 30 -69 -2
-39 -10 9 -20 14 -23 12 -2 -3 11 -43 30 -89 43 -105 44 -126 5 -80 -28 32
-46 71 -68 150 -10 34 -10 34 -11 -20 -1 -46 -3 -52 -13 -35 -6 11 -14 47 -18
80 l-6 60 -11 -35 -11 -35 -1 32 c-1 18 10 62 24 98 13 36 27 89 30 118 l5 52
-20 -62 c-12 -35 -24 -63 -29 -63 -18 0 39 298 64 337 13 19 13 24 3 21 -18
-6 -66 -95 -74 -138 -9 -51 -45 -170 -51 -170 -3 0 -4 35 -1 78 4 61 12 94 40
157 22 49 41 111 48 160 15 101 28 133 73 172 45 40 97 57 154 50 41 -4 44 -3
29 11 -21 21 -111 21 -151 -1 -70 -36 -123 -126 -151 -257 -8 -41 -30 -113
-47 -160 -26 -67 -33 -79 -35 -57 -2 15 8 62 22 105 14 42 30 113 36 157 18
125 73 225 143 262 42 21 124 21 166 0 19 -9 36 -15 39 -13 2 3 -15 14 -38 26
-65 33 -154 31 -214 -4 -26 -15 -49 -26 -52 -24 -2 2 10 21 27 41 30 37 77 57
132 57 18 0 26 4 21 11 -8 14 -88 3 -127 -18 -27 -14 -28 -14 -17 7 16 30 138
117 189 135 68 23 118 19 178 -15 28 -16 54 -34 58 -40 3 -5 11 -10 16 -10 6
0 -3 18 -20 39 -81 102 -224 106 -349 11 -59 -45 -64 -43 -25 9 16 20 28 41
28 46 0 6 27 23 60 40 103 52 219 37 321 -41 49 -38 55 -33 22 16 -31 44 -89
73 -160 78 -32 3 -58 8 -58 12 0 9 33 19 70 21 14 1 3 5 -25 8 l-50 6 38 14
c26 9 57 11 94 6 69 -8 127 -56 138 -113 l8 -37 12 53 c14 62 33 84 100 123
61 35 87 39 59 8 -19 -21 -18 -21 26 1 54 28 87 38 120 39 20 0 15 -4 -22 -23z
m472 -238 c30 -49 24 -56 -15 -18 -19 18 -32 37 -29 42 10 16 24 8 44 -24z
m-1350 -285 c-1 -18 -30 -44 -40 -38 -8 5 -6 13 6 26 17 19 34 25 34 12z
m1111 -366 c9 -45 20 -90 24 -99 5 -13 2 -18 -9 -18 -9 0 -40 -12 -68 -26 -44
-22 -50 -23 -43 -7 4 10 15 45 23 78 9 33 19 61 23 63 4 2 5 12 2 22 -3 12 0
20 6 20 7 0 10 4 7 9 -7 10 3 41 13 41 3 0 13 -37 22 -83z m545 -54 c5 -18 1
-31 -15 -46 l-21 -21 0 36 c0 19 -3 51 -6 69 l-5 34 20 -24 c12 -13 24 -35 27
-48z m-573 -137 c-4 -55 -54 -82 -104 -56 -20 11 -27 40 -9 40 6 0 19 -5 29
-12 23 -14 53 5 50 31 -2 28 1 33 19 29 12 -3 16 -12 15 -32z m67 9 c-30 -79
-95 -122 -158 -106 -43 12 -80 36 -70 46 4 4 19 -2 34 -14 60 -47 144 -10 144
64 0 32 2 35 30 35 27 0 29 -2 20 -25z m-1240 -8 c0 -26 -9 -39 -20 -32 -10 6
0 55 11 55 5 0 9 -10 9 -23z m580 -11 c0 -13 6 -29 14 -35 16 -14 46 -4 46 15
0 16 9 18 30 4 13 -9 11 -14 -13 -35 -44 -39 -88 -32 -113 17 -18 35 -12 58
16 58 14 0 20 -7 20 -24z m1120 -55 c-4 -16 -13 -38 -19 -48 -10 -15 -11 -11
-8 23 4 46 14 67 27 59 5 -3 5 -18 0 -34z m-290 -93 c0 -13 14 -36 30 -52 31
-31 39 -56 17 -56 -18 0 -37 21 -37 41 0 9 -7 22 -15 29 -17 14 -21 60 -5 60
6 0 10 -10 10 -22z m-1094 -140 c14 -27 47 -73 74 -103 28 -30 50 -58 50 -61
0 -3 -14 3 -31 13 -64 37 -148 154 -149 207 0 29 27 2 56 -56z m1114 13 c0
-22 -26 -80 -54 -119 -29 -41 -126 -121 -126 -104 0 4 22 33 49 63 26 29 58
74 71 99 12 25 27 51 32 58 12 14 28 16 28 3z m-619 -41 c5 0 9 -9 9 -20 0
-23 -4 -24 -31 -10 -23 13 -26 45 -3 36 9 -3 20 -6 25 -6z m84 -35 c0 -23 -30
-32 -50 -15 -27 22 -18 42 18 38 24 -2 32 -8 32 -23z m85 10 c0 -16 -30 -35
-54 -35 -10 0 -16 9 -16 25 0 22 4 25 35 25 24 0 35 -5 35 -15z"/>
<path d="M715 1416 l-40 -14 66 -1 c52 -1 79 -7 127 -32 34 -17 62 -35 62 -40
0 -5 -14 -2 -31 6 -17 9 -33 14 -36 12 -2 -3 5 -8 16 -12 12 -3 21 -11 21 -17
0 -6 -7 -7 -17 -3 -65 28 -124 38 -165 28 l-43 -11 41 -1 c23 0 56 -6 75 -12
49 -17 107 -61 101 -78 -3 -10 4 -8 24 6 16 11 47 26 69 34 24 7 33 14 24 17
-10 1 -19 12 -22 23 -5 18 -2 20 21 14 l27 -7 -30 32 c-27 29 -93 70 -112 70
-4 0 9 -11 30 -25 56 -38 45 -47 -17 -14 -64 35 -135 44 -191 25z m220 -142
c-20 -15 -35 -10 -35 10 0 9 9 12 27 8 24 -5 25 -6 8 -18z"/>
<path d="M990 779 c-6 -11 -9 -25 -7 -32 2 -7 11 3 21 21 9 17 12 32 7 32 -6
0 -15 -9 -21 -21z"/>
<path d="M1330 726 c0 -15 40 -69 47 -63 4 5 -36 77 -43 77 -2 0 -4 -6 -4 -14z"/>
<path d="M1162 508 c-7 -7 -12 -23 -12 -37 1 -24 2 -24 15 7 8 18 19 31 25 27
5 -3 10 -1 10 4 0 15 -23 14 -38 -1z"/>
<path d="M1358 505 c22 -16 30 -45 12 -45 -5 0 -26 -11 -46 -25 -43 -29 -68
-26 -102 13 -18 21 -21 23 -16 7 6 -16 5 -18 -7 -7 -16 14 -29 16 -29 2 0 -15
76 -50 108 -50 16 0 41 9 55 20 14 11 32 20 40 20 36 0 20 72 -18 78 -18 3
-18 2 3 -13z"/>
<path d="M1441 434 c12 -13 30 -24 40 -24 38 0 49 -11 49 -54 0 -30 3 -37 10
-26 14 21 12 67 -2 77 -7 4 -37 18 -67 30 l-53 22 23 -25z"/>
</g>
</svg>
