<?xml version="1.0" encoding="iso-8859-1"?>
<!-- Uploaded to: SVG Repo, www.svgrepo.com, Generator: SVG Repo Mixer Tools -->
<svg fill="#000000" height="800px" width="800px" version="1.1" id="Layer_1" xmlns="http://www.w3.org/2000/svg" xmlns:xlink="http://www.w3.org/1999/xlink" 
	 viewBox="0 0 343.127 343.127" xml:space="preserve">
<g>
	<g>
		<path d="M258.115,95.519c0.742-0.747,1.106-1.654,1.106-2.708v-6.436c0-2.555-1.265-3.83-3.794-3.83h-4.009V96.65h4.009
			C256.476,96.645,257.377,96.271,258.115,95.519z"/>
		<path d="M274.453,323.948c-0.205,0-0.389,0.051-0.594,0.061L185.723,259l79.729-58.808h-28.314l-65.572,48.364l-65.572-48.369
			H77.681l79.729,58.808l-88.136,65.014c-0.2-0.005-0.389-0.061-0.594-0.061c-10.214,0-18.499,8.279-18.499,18.499
			c0,0.235,0.061,0.451,0.067,0.681h36.854c0.01-0.23,0.067-0.445,0.067-0.681c0-3.277-0.922-6.308-2.417-8.975l86.815-64.031
			l86.805,64.026c-1.495,2.668-2.417,5.699-2.417,8.975c0,0.236,0.061,0.451,0.067,0.681h36.854c0.01-0.23,0.067-0.445,0.067-0.681
			C292.946,332.232,284.667,323.948,274.453,323.948z"/>
		<path d="M128.732,95.519c0.742-0.747,1.106-1.654,1.106-2.708v-6.436c0-2.555-1.265-3.83-3.794-3.83h-4.009V96.65h4.009
			C127.099,96.645,127.995,96.271,128.732,95.519z"/>
		<path d="M307.113,161.05V31.411c5.023-2.924,8.438-8.305,8.438-14.536C315.551,7.557,307.999,0,298.675,0
			C289.357,0,281.8,7.552,281.8,16.876c0,6.231,3.415,11.612,8.438,14.536V161.05c-5.023,2.924-8.438,8.305-8.438,14.536
			c0,0.021,0.005,0.046,0.005,0.067H61.322c0-0.021,0.005-0.046,0.005-0.067c0-6.231-3.415-11.612-8.438-14.536V31.411
			c5.023-2.924,8.438-8.305,8.438-14.536C61.327,7.557,53.775,0,44.452,0c-9.318,0-16.875,7.552-16.875,16.876
			c0,6.231,3.415,11.612,8.438,14.536V161.05c-5.023,2.924-8.438,8.305-8.438,14.536c0,9.221,7.404,16.686,16.584,16.845h254.797
			c9.18-0.159,16.584-7.624,16.584-16.845C315.551,169.354,312.136,163.973,307.113,161.05z"/>
		<path d="M89.4,112.097c0.727-0.763,1.085-1.654,1.085-2.688V86.339c0-1.055-0.369-1.956-1.106-2.708
			c-0.742-0.747-1.623-1.126-2.657-1.126h-4.009v30.74h4.009C87.777,113.244,88.668,112.865,89.4,112.097z"/>
		<path d="M283.93,161.05V31.411H60.493V161.05H283.93z M244.767,75.756L244.767,75.756h10.481c3.702,0,6.426,1.019,8.161,3.057
			c1.526,1.782,2.284,4.265,2.284,7.455v6.405c0,3.113-1.183,5.755-3.548,7.91l4.92,19.236h-7.188l-4.029-16.599h-4.429v16.599
			h-6.651V75.756z M220.928,78.269c2.063-2.048,4.536-3.077,7.424-3.077c2.929,0,5.422,1.029,7.47,3.092
			c2.053,2.063,3.077,4.552,3.077,7.455v24.059c0,2.929-1.029,5.422-3.092,7.47c-2.063,2.053-4.552,3.077-7.455,3.077
			c-2.934,0-5.417-1.029-7.455-3.092c-2.043-2.063-3.062-4.552-3.062-7.455V85.74h-0.005
			C217.83,82.811,218.865,80.317,220.928,78.269z M192.507,75.756h20.746v6.682h-7.03v37.381h-6.651V82.437h-7.066V75.756z
			 M166.871,85.811c0-2.929,1.029-5.422,3.093-7.475c2.063-2.053,4.552-3.072,7.455-3.072c2.934,0,5.417,1.029,7.46,3.092
			c2.038,2.063,3.057,4.547,3.057,7.455v5.028h-6.897v-5.171c0-1.055-0.374-1.961-1.126-2.708c-0.747-0.747-1.654-1.126-2.708-1.126
			c-1.055,0-1.951,0.374-2.693,1.126c-0.737,0.748-1.106,1.654-1.106,2.708v24.125c0,1.055,0.369,1.951,1.106,2.688
			c0.742,0.742,1.633,1.106,2.693,1.106c1.055,0,1.961-0.369,2.708-1.106c0.748-0.737,1.126-1.633,1.126-2.688v-6.083h6.897v6.154
			c0,2.934-1.029,5.417-3.092,7.455c-2.063,2.043-4.536,3.062-7.424,3.062c-2.929,0-5.422-1.029-7.47-3.077
			c-2.053-2.053-3.077-4.531-3.077-7.439V85.811z M143.375,75.72h18.924v6.682h-12.273v12.027h8.965v6.682h-8.965v12.027h12.273
			v6.682h-18.924V75.72z M115.384,75.756h10.481c3.702,0,6.426,1.019,8.161,3.057c1.526,1.782,2.284,4.265,2.284,7.455v6.405
			c0,3.113-1.183,5.755-3.548,7.91l4.92,19.236h-7.188l-4.029-16.599h-4.429v16.599h-6.651V75.756z M102.794,75.756h6.651v44.063
			h-6.651V75.756z M76.068,75.72h10.445c2.908,0,5.376,1.034,7.404,3.098c2.033,2.063,3.041,4.536,3.041,7.419v23.04
			c0,2.903-1.019,5.391-3.057,7.455c-2.038,2.063-4.5,3.092-7.388,3.092H76.068V75.72z"/>
		<path d="M228.168,113.526c1.055,0,1.951-0.369,2.693-1.106c0.737-0.737,1.106-1.633,1.106-2.693V85.601
			c0-1.05-0.369-1.951-1.106-2.688c-0.742-0.742-1.638-1.106-2.693-1.106c-1.055,0-1.961,0.369-2.708,1.106
			c-0.748,0.737-1.126,1.638-1.126,2.688v24.125c0,1.055,0.374,1.956,1.126,2.693C226.212,113.152,227.113,113.526,228.168,113.526z
			"/>
	</g>
</g>
</svg>