<?xml version="1.0" standalone="no"?>
<!DOCTYPE svg PUBLIC "-//W3C//DTD SVG 20010904//EN"
 "http://www.w3.org/TR/2001/REC-SVG-20010904/DTD/svg10.dtd">
<svg version="1.0" xmlns="http://www.w3.org/2000/svg"
 width="300.000000pt" height="300.000000pt" viewBox="0 0 300.000000 300.000000"
 preserveAspectRatio="xMidYMid meet">
<metadata>
Created by potrace 1.10, written by Peter Selinger 2001-2011
</metadata>
<g transform="translate(0.000000,300.000000) scale(0.100000,-0.100000)"
fill="#000000" stroke="none">
<path d="M1525 2861 c-3 -6 -28 -11 -54 -11 -49 0 -147 -31 -208 -66 -24 -14
-33 -26 -33 -45 0 -37 -37 -117 -60 -129 -25 -13 -56 -13 -79 2 -14 9 -27 8
-60 -5 -23 -10 -54 -17 -69 -17 -16 0 -43 -11 -62 -25 -19 -14 -41 -25 -50
-25 -21 0 -40 -19 -40 -40 0 -9 -13 -26 -30 -38 -21 -16 -34 -39 -46 -80 -9
-31 -21 -63 -26 -70 -18 -22 -3 -99 26 -133 15 -17 25 -34 22 -37 -9 -8 -95
19 -107 34 -6 8 -18 14 -26 14 -9 0 -13 8 -11 23 2 16 11 23 31 25 23 3 26 6
16 18 -23 28 -64 17 -109 -32 -40 -44 -42 -49 -38 -95 3 -27 1 -52 -4 -55 -5
-4 -7 -17 -4 -29 3 -13 2 -27 -4 -30 -16 -10 -12 -30 16 -70 18 -27 23 -45 19
-66 -14 -65 122 -249 208 -280 36 -13 50 -29 25 -29 -23 1 -92 36 -124 63 -41
34 -48 34 -89 -5 -18 -18 -50 -46 -70 -62 -21 -17 -34 -35 -31 -42 4 -8 9 -21
12 -29 4 -9 -1 -18 -12 -22 -25 -9 -54 -40 -54 -58 0 -9 12 -21 28 -27 37 -16
36 -16 22 -33 -7 -8 -9 -22 -6 -31 4 -10 -4 -28 -19 -46 -18 -21 -24 -37 -19
-51 3 -11 1 -37 -6 -57 -9 -26 -9 -43 -2 -55 7 -13 6 -28 -4 -51 -12 -30 -12
-34 14 -70 16 -22 39 -73 52 -114 16 -52 35 -87 61 -115 20 -22 48 -59 63 -82
18 -30 36 -45 58 -51 l33 -8 5 -101 c4 -77 9 -106 23 -120 9 -11 17 -30 17
-42 0 -15 10 -26 33 -36 17 -7 38 -23 45 -34 7 -12 22 -21 35 -21 12 -1 33 -7
47 -15 14 -8 40 -14 57 -15 22 0 37 -7 45 -20 8 -13 24 -20 44 -20 17 0 51 -7
75 -16 25 -9 59 -13 78 -10 26 4 41 0 63 -19 36 -30 62 -31 95 -5 34 26 49 25
75 -5 24 -28 59 -32 98 -11 13 8 38 12 55 9 24 -4 39 1 62 21 21 18 43 26 67
26 20 0 55 10 78 21 23 12 78 28 122 35 85 15 121 32 130 62 4 11 18 24 32 31
37 16 124 92 124 107 0 6 14 17 30 23 17 5 30 17 30 26 0 9 16 25 35 37 20 11
44 37 55 57 10 20 41 57 68 82 50 48 65 82 55 131 -5 24 -1 28 28 36 35 9 39
21 24 68 -6 18 -1 22 37 30 l43 9 5 55 c3 30 10 64 16 75 14 25 10 37 -33 99
-45 66 -51 92 -24 117 30 28 30 108 0 135 -35 32 -61 92 -54 125 8 37 -2 37
-56 -4 -44 -34 -82 -57 -94 -57 -3 0 21 26 52 58 32 31 63 68 70 82 18 40 36
136 30 160 -3 12 1 43 9 68 16 55 18 94 4 108 -7 7 -2 21 15 44 14 19 25 42
25 51 0 10 4 20 9 24 6 3 13 27 16 53 4 26 11 62 17 80 12 40 -9 107 -45 139
-27 25 -124 56 -162 51 -37 -4 -43 -25 -11 -38 34 -12 52 -50 37 -77 -10 -20
-148 -99 -157 -90 -2 2 8 27 22 56 25 47 26 55 15 93 -7 23 -33 63 -60 92 -35
37 -54 69 -70 119 -23 69 -29 74 -61 57 -15 -8 -21 -6 -29 9 -9 16 -17 17 -53
11 -23 -5 -50 -17 -59 -29 -9 -11 -29 -23 -45 -27 -16 -4 -42 -22 -57 -40 -52
-62 -70 -40 -37 42 21 50 5 100 -46 148 -25 22 -59 46 -77 52 -20 7 -38 24
-49 45 -10 19 -18 28 -18 22 0 -7 -4 -13 -10 -13 -5 0 -10 7 -10 15 0 8 -4 15
-10 15 -5 0 -10 -7 -10 -15 0 -19 -19 -19 -41 1 -11 10 -19 12 -24 5z m124
-89 c24 -17 47 -32 51 -32 12 0 67 -54 80 -79 10 -20 10 -34 0 -77 -14 -58
-10 -81 17 -91 10 -4 21 -11 25 -17 5 -7 8 -7 8 2 0 7 4 11 9 8 4 -3 23 8 41
24 18 16 42 32 52 36 10 3 18 10 18 16 0 6 3 8 6 5 4 -3 16 0 28 8 41 30 118
13 138 -30 13 -30 5 -43 -17 -25 -24 20 -42 5 -60 -49 -25 -77 -59 -94 -203
-99 l-115 -5 7 48 c4 26 10 53 12 60 3 6 -4 22 -14 36 -17 20 -22 21 -36 10
-14 -12 -14 -9 -1 35 27 87 28 118 6 138 -24 22 -36 16 -55 -27 -8 -18 -26
-58 -40 -91 -33 -74 -75 -140 -100 -156 -26 -17 -36 2 -36 70 0 64 -8 100 -22
100 -6 0 -9 -41 -6 -109 3 -101 5 -111 36 -160 37 -61 40 -71 11 -45 -49 44
-64 92 -64 207 0 59 -4 107 -8 107 -4 0 -14 -14 -21 -31 -17 -41 -25 -26 -35
61 -10 100 -31 116 -31 25 0 -85 21 -177 55 -248 l26 -52 -26 30 c-14 17 -35
59 -46 95 -26 82 -37 223 -19 245 21 25 1 17 -25 -10 -20 -23 -23 -33 -19 -87
5 -70 44 -193 81 -257 14 -25 44 -65 67 -90 38 -42 39 -43 9 -23 -83 58 -141
172 -168 327 -7 38 -8 39 -17 15 -10 -26 -4 -78 17 -152 7 -25 11 -49 8 -52
-3 -3 -29 9 -59 26 -30 16 -54 27 -54 24 0 -4 -6 -2 -12 4 -7 5 -23 18 -36 28
-16 12 -24 29 -25 52 -2 34 -1 34 49 43 62 10 97 42 122 113 15 42 52 109 52
93 0 -3 30 5 66 17 50 17 87 22 148 20 74 -1 85 -4 125 -34z m45 -109 c-26
-108 -155 -315 -181 -290 -3 4 12 27 35 51 43 47 101 153 122 224 14 46 34 59
24 15z m-642 -141 c-3 -44 -1 -51 27 -74 17 -15 52 -34 78 -44 61 -22 80 -39
33 -29 -124 26 -177 85 -154 173 11 38 19 24 16 -26z m-54 -7 c5 -48 23 -88
54 -117 28 -27 36 -48 18 -48 -28 0 -98 46 -123 81 -37 52 -40 89 -7 106 36
19 55 12 58 -22z m-112 -4 c-12 -19 8 -72 41 -110 23 -28 49 -45 81 -55 34
-11 40 -15 22 -15 -40 -1 -112 40 -137 78 -24 35 -32 111 -12 111 5 0 8 -4 5
-9z m1209 -54 c-18 -82 -83 -132 -173 -130 -76 1 -84 18 -9 19 103 0 155 41
165 130 4 35 7 42 14 30 5 -9 6 -31 3 -49z m-380 16 c-15 -81 -80 -170 -154
-211 -50 -28 -54 -16 -6 17 66 44 116 117 148 214 11 31 19 18 12 -20z m431
-35 c-17 -28 -22 -22 -18 24 4 40 5 41 17 18 10 -18 10 -28 1 -42z m-1290 -31
c23 -43 35 -54 95 -82 29 -13 54 -31 55 -40 1 -8 -1 -13 -4 -11 -4 2 -23 -16
-42 -39 -40 -48 -74 -73 -142 -103 l-47 -20 8 21 c6 15 0 38 -17 75 l-25 55
23 69 c23 72 55 122 71 112 5 -3 16 -19 25 -37z m1314 -30 c-31 -45 -93 -87
-127 -86 l-28 1 34 12 c50 18 108 71 123 113 11 31 14 33 16 14 2 -12 -6 -37
-18 -54z m-560 9 c-29 -48 -79 -84 -90 -65 -10 15 -4 29 11 29 6 0 29 18 51
40 48 47 59 45 28 -4z m630 -15 c14 -28 12 -73 -6 -116 -13 -33 -13 -39 0 -60
18 -28 12 -35 -30 -35 -49 0 -50 -17 -1 -23 49 -7 159 13 212 39 37 17 75 75
75 113 0 11 5 23 12 27 21 13 1 -75 -26 -111 -48 -62 -217 -104 -309 -75 -55
18 -64 26 -72 61 -4 16 -11 29 -16 29 -19 0 -8 37 15 48 30 13 96 71 96 83 0
12 22 38 32 39 4 0 12 -9 18 -19z m-890 -90 c48 -33 100 -65 114 -71 14 -5 26
-15 26 -21 0 -8 4 -8 15 1 8 7 15 9 15 5 0 -4 7 -1 17 6 13 11 17 11 20 1 5
-14 35 7 109 76 26 24 55 47 66 51 26 9 130 -12 159 -33 13 -9 34 -16 47 -16
29 0 109 -64 117 -93 3 -12 13 -39 22 -59 14 -33 14 -51 3 -145 -6 -60 -30
-195 -51 -301 -37 -180 -40 -204 -38 -345 3 -212 -15 -268 -129 -392 -40 -44
-76 -100 -122 -191 -80 -158 -98 -174 -204 -174 -118 0 -179 43 -253 179 -25
46 -81 124 -125 173 -111 126 -123 153 -121 258 5 176 -17 418 -48 533 -16 59
-29 118 -29 130 0 13 -4 27 -10 33 -17 17 -33 147 -26 208 7 53 13 65 50 100
24 23 57 59 74 82 22 29 45 46 79 57 80 28 122 18 223 -52z m1056 -67 c-15
-14 -30 -23 -34 -20 -3 4 7 18 23 31 39 30 47 22 11 -11z m132 -40 c-12 -77
-12 -77 -23 -90 -7 -8 -15 -8 -31 3 -21 14 -74 9 -74 -6 0 -4 -6 -8 -12 -8 -7
-1 -34 -4 -60 -8 -51 -8 -118 1 -118 15 0 6 16 10 35 10 50 0 138 20 156 36 8
8 23 14 33 14 9 0 19 7 22 15 4 8 11 15 18 15 6 0 20 14 31 30 11 16 23 30 26
30 3 0 2 -25 -3 -56z m-1941 -8 c4 -7 18 -18 31 -25 24 -13 21 -31 -4 -31 -8
0 -12 5 -9 10 3 6 0 10 -7 10 -22 0 -52 26 -44 38 10 16 23 15 33 -2z m286
-56 c-56 -50 -184 -74 -256 -46 -42 16 -102 66 -79 66 6 0 14 -5 17 -10 4 -6
25 -20 47 -31 59 -30 145 -23 224 17 76 40 87 41 47 4z m1330 -69 c47 -18 157
-13 206 9 52 24 68 25 51 5 -30 -37 -193 -58 -257 -34 -32 12 -80 54 -95 84
-6 11 6 4 28 -17 22 -20 52 -42 67 -47z m-1616 -1 c42 -22 110 -26 183 -9 106
24 100 25 100 -10 0 -28 -5 -34 -47 -52 -46 -20 -163 -26 -163 -8 0 4 -9 11
-21 14 -12 4 -30 16 -41 27 -12 12 -28 18 -39 15 -15 -4 -19 0 -19 19 0 29 1
29 47 4z m1586 -37 c27 -25 175 -31 237 -9 24 8 45 14 46 13 1 -1 5 -21 9 -43
6 -38 4 -43 -24 -63 -16 -12 -64 -38 -107 -58 -62 -29 -91 -37 -154 -41 -59
-3 -78 -1 -82 9 -4 11 5 13 42 11 64 -5 157 20 243 66 77 40 104 70 45 50 -18
-6 -42 -17 -53 -24 -11 -6 -35 -15 -52 -19 -18 -4 -33 -10 -33 -14 0 -7 -135
-31 -174 -31 -17 0 -18 6 -13 75 3 42 9 80 12 85 10 15 36 12 58 -7z m-1582
-29 c13 -15 38 -33 56 -40 43 -18 135 -18 180 1 45 19 59 19 44 1 -19 -23
-106 -39 -166 -31 -55 6 -144 55 -153 83 -6 20 13 13 39 -14z m67 -90 c52 -15
153 -19 167 -5 6 4 22 11 38 15 23 5 29 3 37 -19 5 -14 11 -45 12 -68 2 -23 8
-46 13 -50 6 -5 4 -7 -5 -6 -8 1 -41 -6 -73 -15 -50 -15 -66 -16 -105 -6 -26
6 -54 18 -62 25 -8 7 -28 15 -44 17 -22 2 -34 13 -52 48 -28 55 -24 106 8 89
10 -6 40 -17 66 -25z m1790 -99 c-5 -80 -21 -113 -45 -94 -17 15 -47 -10 -73
-61 -30 -57 -99 -114 -167 -137 -32 -12 -53 -2 -53 24 0 7 -14 29 -32 49 l-32
36 12 68 c6 37 16 80 22 95 9 23 13 25 26 14 10 -8 42 -13 83 -13 54 0 79 6
135 33 38 18 75 39 83 47 8 8 21 14 30 14 13 0 15 -12 11 -75z m-1720 -85 c56
-15 91 -12 155 14 66 27 79 15 15 -14 -48 -22 -149 -27 -195 -9 -31 11 -73 47
-73 62 0 5 14 -3 30 -17 17 -14 47 -30 68 -36z m227 -39 c7 -33 -10 -68 -37
-77 -25 -8 -140 26 -163 47 -19 19 -18 19 46 19 75 0 129 15 129 37 0 24 18 5
25 -26z m1421 -59 c-30 -59 -82 -107 -151 -138 -63 -29 -121 -42 -111 -26 4 7
15 12 24 12 32 0 121 48 165 90 25 22 55 64 68 93 14 32 24 46 26 35 2 -9 -7
-39 -21 -66z m-1754 -9 c19 -17 24 -43 9 -43 -14 0 -71 -82 -71 -102 0 -10
-13 -37 -30 -60 -16 -22 -30 -45 -30 -50 0 -6 -8 -26 -17 -45 -14 -30 -15 -40
-4 -67 7 -17 17 -49 21 -71 5 -22 11 -51 14 -64 3 -13 -1 -36 -9 -52 -19 -36
-19 -34 7 -59 12 -11 18 -20 12 -20 -5 0 12 -14 38 -30 32 -20 50 -39 54 -57
4 -16 15 -40 25 -55 11 -14 19 -33 19 -41 0 -16 55 -77 71 -77 5 0 19 -20 30
-45 11 -25 24 -45 30 -45 6 0 8 -4 5 -9 -3 -5 1 -11 9 -14 8 -4 23 -23 34 -44
21 -41 53 -73 74 -73 26 -1 99 -41 121 -67 13 -16 39 -34 57 -42 21 -8 45 -30
62 -57 21 -32 43 -50 87 -71 32 -15 59 -34 59 -40 1 -18 -25 -16 -56 5 -15 9
-48 18 -73 18 -63 2 -160 26 -190 47 -13 9 -32 17 -40 17 -31 0 -115 33 -145
58 -16 13 -42 45 -57 70 -24 40 -28 58 -28 125 0 88 -14 118 -64 142 -18 9
-40 29 -50 46 -10 16 -30 43 -46 59 -15 16 -42 66 -60 112 -18 46 -40 94 -50
108 -28 40 -15 213 22 278 18 33 26 118 9 108 -19 -12 -19 38 0 62 10 14 19
37 19 52 0 18 11 36 38 58 20 18 42 36 47 42 15 13 26 12 47 -7z m355 -50 c4
-31 7 -52 17 -133 l7 -55 -26 30 c-23 27 -55 109 -55 142 0 16 39 57 47 49 4
-3 8 -18 10 -33z m-92 6 c5 -5 -13 -9 -44 -9 -42 0 -59 -5 -83 -25 -17 -14
-42 -25 -59 -25 -54 0 -31 -27 70 -79 93 -49 161 -101 132 -101 -7 0 -41 16
-75 35 -35 19 -88 44 -119 54 l-56 19 -25 -23 c-15 -14 -26 -35 -26 -49 0 -15
-9 -31 -20 -38 -11 -7 -20 -16 -20 -20 0 -14 133 -49 234 -62 101 -12 126 -19
114 -32 -4 -3 -71 -1 -150 4 -78 6 -145 8 -148 5 -2 -2 1 -13 8 -23 16 -26 15
-33 -3 -27 -20 8 -28 -8 -10 -23 9 -8 13 -21 9 -35 -3 -13 -1 -26 5 -29 5 -4
70 -1 143 5 138 13 232 7 225 -14 -4 -14 -53 -22 -231 -36 -160 -14 -196 -33
-103 -56 33 -8 42 -16 49 -40 5 -16 6 -38 4 -47 -3 -12 2 -18 13 -18 9 0 22
-5 28 -11 7 -7 50 3 145 35 136 47 194 58 170 34 -7 -7 -78 -40 -159 -73 -149
-61 -196 -94 -114 -81 33 5 41 3 41 -9 0 -9 9 -15 25 -15 30 0 32 -11 5 -35
-29 -26 -25 -38 21 -57 50 -21 61 -17 185 73 78 57 104 69 104 50 0 -5 -43
-49 -95 -97 -52 -48 -95 -93 -95 -101 0 -15 4 -17 68 -33 38 -10 42 -14 42
-43 1 -79 18 -65 131 104 9 13 20 21 24 18 3 -4 -14 -47 -38 -96 -42 -82 -44
-91 -32 -118 17 -40 83 -107 102 -103 8 2 29 37 47 80 37 91 58 124 73 115 8
-5 4 -33 -14 -95 -35 -124 -37 -132 -24 -132 6 0 16 9 23 20 17 27 32 25 53
-6 12 -19 20 -23 28 -15 15 15 27 14 27 -4 0 -17 16 -20 26 -4 4 8 9 8 17 0 6
-6 17 -11 25 -11 11 0 12 25 6 141 -6 119 -5 141 7 137 17 -6 37 -80 45 -171
5 -51 10 -65 19 -57 7 6 26 7 44 4 26 -6 31 -4 31 13 0 28 20 43 56 43 23 0
39 8 53 26 l20 26 -54 84 c-89 138 -69 143 45 11 74 -87 74 -87 122 -87 48 0
48 0 48 34 0 22 6 36 16 40 10 4 15 16 14 33 -3 49 -1 53 40 59 95 15 67 49
-95 114 -177 71 -142 84 58 20 150 -48 182 -51 191 -15 4 15 18 30 32 36 26 9
28 22 8 73 -4 11 8 24 40 43 29 17 46 35 46 47 0 17 -6 18 -67 13 -181 -17
-283 -20 -283 -9 0 21 40 33 176 52 150 22 171 30 180 65 12 46 3 48 -175 42
-137 -5 -163 -3 -148 7 17 13 139 40 232 51 93 11 115 16 115 25 0 5 -11 12
-25 16 -31 8 -32 26 -2 39 27 12 35 52 11 62 -9 3 -51 1 -92 -6 -41 -6 -77 -9
-80 -7 -2 3 32 21 76 41 80 37 102 59 82 79 -7 7 -3 17 11 32 11 12 16 24 11
27 -20 13 -212 -45 -212 -64 0 -14 31 -23 39 -12 3 6 27 13 54 17 56 9 63 -6
15 -32 -17 -9 -47 -30 -65 -47 -32 -29 -33 -31 -18 -52 13 -19 26 -23 66 -23
35 0 49 -4 49 -14 0 -22 -23 -35 -81 -46 -138 -26 -165 -33 -184 -46 -26 -19
-39 -18 -31 3 4 10 11 50 16 90 7 56 18 88 47 138 40 67 57 79 68 44 l7 -21
23 22 c43 41 237 92 260 68 3 -3 6 -43 7 -89 0 -46 5 -89 10 -96 6 -7 7 -30 3
-51 -4 -26 -1 -52 9 -76 18 -43 14 -59 -20 -75 -34 -15 -39 -34 -18 -66 17
-26 17 -28 0 -40 -12 -9 -15 -20 -11 -38 5 -20 2 -29 -14 -39 -14 -9 -21 -23
-21 -45 0 -24 -8 -39 -38 -62 -31 -26 -37 -38 -37 -69 0 -33 -3 -37 -30 -42
-20 -4 -31 -12 -35 -29 -3 -16 -16 -28 -35 -34 -47 -15 -57 -27 -49 -60 8 -36
-8 -49 -52 -41 -30 5 -31 4 -27 -20 4 -21 1 -26 -14 -26 -11 0 -25 -11 -31
-25 -6 -13 -28 -31 -48 -40 -31 -13 -34 -17 -24 -30 15 -18 15 -17 -74 -19
-64 -1 -70 -3 -95 -34 -22 -25 -35 -32 -63 -32 -20 0 -41 -7 -48 -15 -7 -8
-17 -15 -22 -15 -6 0 -23 -11 -40 -25 -30 -26 -91 -34 -103 -15 -4 6 -29 10
-56 9 -33 -2 -55 3 -67 14 -21 19 -57 22 -67 6 -5 -7 -14 -4 -27 8 -11 10 -39
27 -62 38 -31 15 -42 27 -44 47 -4 32 -22 48 -75 68 -31 12 -43 23 -52 49 -13
40 -25 47 -54 32 -17 -9 -22 -8 -31 9 -7 13 -21 20 -40 20 -32 0 -60 30 -60
65 -1 11 -14 29 -33 40 -18 12 -32 29 -32 40 0 11 -6 25 -14 31 -10 8 -11 13
-3 18 27 16 12 36 -27 36 -43 0 -66 19 -56 49 4 13 -2 25 -22 41 -20 16 -28
31 -28 53 0 28 -8 37 -62 72 -65 42 -73 54 -48 75 19 16 19 53 0 90 -12 24
-13 33 -3 49 10 17 9 24 -10 44 -26 27 -28 50 -7 67 8 7 15 24 15 37 0 14 14
42 30 63 17 21 30 48 30 60 0 12 14 39 32 60 27 32 37 37 63 33 19 -2 43 3 65
16 35 20 103 20 125 0z m1180 -25 c21 -46 15 -81 -29 -159 -34 -59 -35 -59
-42 -31 -6 24 9 170 22 214 7 24 32 12 49 -24z m-1185 -34 c5 -8 16 -35 26
-59 10 -25 34 -63 52 -85 32 -38 34 -44 28 -91 -3 -27 -6 -71 -6 -96 l0 -45
-82 4 c-46 2 -116 0 -156 -5 -57 -7 -75 -7 -83 4 -9 10 -8 17 2 29 11 14 29
16 114 11 109 -5 155 7 155 43 0 34 -44 57 -127 66 -99 10 -95 10 -115 17 -10
4 -25 9 -33 12 -18 5 -19 28 -4 56 13 24 23 22 141 -33 76 -36 91 -40 113 -30
55 25 11 95 -91 145 -51 24 -55 40 -16 62 33 18 72 16 82 -5z m1625 -93 c19
-29 15 -82 -7 -96 -10 -6 -18 -8 -19 -4 0 5 -3 34 -5 66 -5 61 5 72 31 34z
m30 -253 c24 -42 26 -51 16 -83 -6 -20 -12 -45 -13 -56 -2 -11 -16 -26 -31
-33 -15 -7 -27 -17 -27 -23 0 -5 -6 -9 -14 -9 -21 0 -8 99 16 124 17 18 19 30
13 79 -7 68 1 68 40 1z m-505 -112 c9 -10 39 -11 128 -6 64 4 114 3 110 -1 -4
-4 -58 -16 -119 -26 -110 -18 -149 -34 -173 -72 -8 -12 -5 -22 14 -43 25 -26
25 -26 136 -20 l112 7 -5 -48 c-4 -29 -14 -57 -27 -71 -25 -28 -52 -27 -176
10 -122 37 -146 40 -172 18 -21 -16 -21 -20 -8 -45 15 -28 63 -59 74 -48 3 4
6 1 6 -5 0 -6 23 -18 50 -27 28 -9 50 -21 50 -27 0 -5 -9 -21 -20 -35 -11 -14
-20 -34 -20 -44 0 -10 -8 -34 -17 -54 -15 -31 -21 -35 -43 -30 -14 4 -27 12
-29 18 -7 21 -123 136 -143 143 -21 6 -58 -20 -58 -41 0 -7 18 -47 41 -90 22
-42 39 -78 37 -80 -2 -1 -19 -10 -38 -20 -19 -10 -42 -24 -52 -32 -21 -19 -27
-8 -44 76 -7 36 -16 75 -19 87 -5 16 3 27 36 49 35 25 51 49 97 145 30 63 56
119 56 123 1 4 6 11 11 15 26 18 177 205 172 213 -1 3 3 -3 10 -11 7 -8 17
-21 23 -28z m-996 -24 c22 -31 20 -35 -16 -43 -18 -4 -82 -23 -142 -42 -123
-40 -128 -39 -138 32 -3 18 7 20 110 31 67 7 122 18 135 28 29 20 33 20 51 -6z
m115 -135 c17 -21 59 -85 93 -142 53 -88 72 -111 122 -145 45 -30 71 -41 110
-44 l51 -4 0 -107 c-1 -58 -4 -112 -8 -118 -6 -9 -17 -8 -45 4 -55 22 -57 25
-42 101 12 66 12 70 -9 91 -40 40 -70 22 -117 -73 -32 -64 -46 -75 -67 -54
-34 34 -28 66 35 191 7 13 2 26 -16 48 l-25 29 -54 -55 -54 -55 -23 20 c-13
11 -26 20 -30 20 -5 0 -11 7 -14 15 -4 10 3 20 19 27 13 6 22 15 19 19 -3 5 0
9 7 9 16 0 79 62 79 78 0 6 5 12 10 12 6 0 10 12 10 26 0 14 -4 23 -9 20 -5
-3 -11 1 -15 9 -9 25 -52 17 -100 -20 -26 -19 -50 -35 -56 -35 -5 0 -14 -8
-19 -17 -6 -10 -11 -14 -11 -9 0 5 -8 2 -17 -7 -28 -24 -76 -27 -67 -3 3 8 -2
28 -11 45 -9 18 -14 35 -11 40 3 4 37 20 76 35 39 16 85 41 103 57 17 16 37
29 44 29 7 0 26 -17 42 -37z m1251 -112 c0 -10 -12 -31 -27 -46 -28 -27 -28
-27 -31 -5 -2 13 6 32 19 46 27 29 39 30 39 5z m-157 -195 c-21 -20 -41 -36
-45 -36 -16 0 -7 29 10 34 11 4 30 18 43 32 13 14 25 21 27 15 2 -5 -14 -26
-35 -45z m-158 -146 c-16 -16 -31 -28 -33 -25 -7 7 39 55 52 55 5 0 -3 -13
-19 -30z"/>
<path d="M1724 1630 c4 -14 12 -49 18 -78 10 -51 10 -55 -13 -77 -13 -13 -49
-38 -79 -54 -30 -17 -50 -31 -43 -31 15 0 82 38 110 63 13 11 26 18 29 14 15
-14 -8 -34 -75 -67 -39 -19 -71 -40 -71 -47 0 -6 -8 -14 -17 -17 -10 -3 -2 -3
18 0 27 3 48 -2 80 -21 24 -13 54 -25 67 -25 17 0 22 -6 22 -27 0 -14 14 -50
30 -80 33 -58 39 -117 16 -149 -14 -19 -16 -18 -71 9 -58 28 -92 31 -38 3 58
-29 59 -42 4 -60 -27 -9 -67 -16 -88 -16 -21 0 -47 -7 -57 -15 -25 -19 -63
-19 -96 0 -16 9 -56 14 -112 15 -78 0 -88 2 -88 18 0 10 13 31 30 47 42 40 29
45 -16 6 l-36 -32 -29 27 c-23 22 -29 37 -29 68 0 23 4 48 10 56 6 9 5 17 -3
22 -8 5 -5 8 8 8 17 0 17 2 5 10 -25 16 -29 12 -51 -61 -20 -67 -21 -73 -5
-105 14 -32 50 -59 135 -106 18 -10 56 -56 95 -116 82 -123 116 -142 192 -106
22 11 40 30 54 60 11 24 29 63 40 87 11 24 36 62 56 85 29 34 42 42 70 42 29
0 36 5 55 42 27 52 22 96 -18 163 -49 83 -48 99 8 155 27 27 49 53 49 58 0 6
10 8 23 6 12 -2 16 -1 9 2 -10 5 -10 9 -1 20 10 12 0 14 -63 14 l-74 0 -1 34
c-1 31 4 36 47 60 48 26 110 35 110 16 0 -5 5 -10 10 -10 18 0 10 19 -14 35
-22 14 -28 14 -58 1 -18 -8 -48 -24 -65 -36 -31 -21 -33 -21 -39 -3 -23 71
-65 151 -50 93z m66 -219 c0 -14 -28 -33 -45 -29 -22 4 -15 23 8 20 9 -2 17 2
17 7 0 6 5 11 10 11 6 0 10 -4 10 -9z m38 -12 c-2 -12 -15 -31 -30 -42 -23
-17 -34 -19 -70 -11 -27 6 -43 14 -43 24 0 15 7 15 67 3 22 -4 30 0 39 21 15
32 42 35 37 5z m-390 -499 c3 -21 2 -22 -12 -11 -19 16 -21 44 -3 39 6 -3 14
-15 15 -28z m137 -12 c-1 -14 -9 -35 -18 -49 -15 -20 -19 -22 -27 -9 -15 24
-12 48 10 70 25 25 36 20 35 -12z m-74 12 c5 0 9 -16 9 -35 0 -40 -12 -45 -34
-13 -21 30 -21 62 0 54 9 -3 20 -6 25 -6z m-46 -80 c18 -20 15 -38 -4 -25 -15
9 -33 45 -23 45 5 0 17 -9 27 -20z m145 -12 c0 -24 -16 -39 -34 -32 -16 6 -16
8 0 25 20 22 34 25 34 7z m-86 -35 c4 -5 13 -8 19 -8 5 0 12 -6 15 -12 2 -7
-4 -13 -13 -13 -24 0 -56 20 -50 31 7 11 19 12 29 2z"/>
<path d="M1302 1627 c-16 -18 -42 -94 -42 -121 0 -11 -4 -27 -9 -35 -8 -12
-15 -9 -41 12 -17 15 -43 30 -57 33 -28 7 -73 -10 -73 -28 0 -9 3 -9 12 0 23
23 73 13 122 -23 25 -20 46 -41 46 -47 0 -16 -116 -3 -145 16 -14 9 -25 12
-25 7 0 -5 5 -13 10 -16 6 -4 8 -10 5 -15 -3 -5 0 -12 6 -16 8 -4 7 -9 -2 -15
-11 -7 -11 -9 1 -9 13 0 13 -1 0 -11 -11 -8 -8 -9 14 -4 27 6 28 5 15 -11 -12
-16 -12 -17 3 -11 10 3 28 -3 43 -15 26 -20 28 -35 14 -87 -2 -8 4 -17 14 -19
12 -2 22 7 32 32 9 21 20 33 28 30 7 -2 35 7 62 21 37 20 64 26 114 27 45 0
58 3 41 8 -28 8 -16 16 35 23 17 2 5 5 -25 6 -31 0 -61 6 -68 13 -9 9 -12 9
-12 0 0 -17 -23 -15 -83 10 l-53 21 4 66 c3 36 10 88 17 116 15 54 14 63 -3
42z m-48 -275 c15 -2 35 3 45 12 11 10 21 12 31 5 23 -15 -15 -39 -61 -39 -46
0 -104 43 -80 59 11 7 18 4 26 -12 6 -13 22 -23 39 -25z m-4 37 c0 -7 10 -9
26 -5 19 5 25 3 22 -6 -6 -18 -46 -22 -64 -8 -18 16 -18 30 1 30 8 0 15 -5 15
-11z"/>
<path d="M1320 1417 c27 -16 90 -32 90 -23 0 3 -18 10 -41 16 -22 6 -48 13
-57 16 -9 3 -6 -1 8 -9z"/>
<path d="M1385 1140 c-30 -33 -12 -80 30 -80 11 0 37 -9 58 -20 20 -11 45 -20
56 -20 10 0 30 9 44 20 14 11 39 20 55 20 38 0 54 20 50 62 l-3 32 -138 1
c-115 1 -140 -1 -152 -15z m138 -44 c10 -8 14 -17 9 -20 -15 -9 -42 4 -42 20
0 17 10 17 33 0z"/>
</g>
</svg>
