<?xml version="1.0" standalone="no"?>
<!DOCTYPE svg PUBLIC "-//W3C//DTD SVG 20010904//EN"
 "http://www.w3.org/TR/2001/REC-SVG-20010904/DTD/svg10.dtd">
<svg version="1.0" xmlns="http://www.w3.org/2000/svg"
 width="300.000000pt" height="300.000000pt" viewBox="0 0 300.000000 300.000000"
 preserveAspectRatio="xMidYMid meet">
<metadata>
Created by potrace 1.10, written by Peter Selinger 2001-2011
</metadata>
<g transform="translate(0.000000,300.000000) scale(0.050000,-0.050000)"
fill="#000000" stroke="none">
<path d="M2930 5328 c-389 -82 -650 -656 -650 -1431 l0 -319 -135 -60 c-240
-107 -336 -232 -314 -409 13 -100 8 -116 -54 -213 -64 -101 -67 -113 -74 -333
l-7 -228 52 10 c103 19 118 -15 94 -226 -17 -155 -16 -193 7 -216 55 -55 73
-5 68 184 -5 175 26 353 61 353 39 0 56 -1134 20 -1364 -23 -151 -5 -236 49
-236 45 0 55 86 35 275 -35 318 -43 1286 -11 1298 50 19 158 -61 206 -153 51
-98 51 -519 1 -847 -30 -188 22 -305 83 -191 17 31 16 95 -3 249 -46 375 15
631 184 776 159 136 284 135 343 -3 35 -81 26 -629 -12 -751 -30 -95 -25 -150
14 -176 55 -37 63 14 68 456 6 485 13 522 110 594 91 67 101 33 87 -290 -6
-158 -17 -327 -23 -377 -8 -64 -3 -102 18 -130 63 -83 75 -12 79 464 4 468 13
526 84 526 85 0 98 -1148 16 -1380 -42 -119 -17 -200 62 -200 105 0 144 119
80 243 -43 83 -64 424 -28 466 38 47 76 37 111 -30 65 -127 169 -1 169 205 0
118 25 163 56 102 11 -22 11 -102 -1 -203 -21 -178 -5 -233 52 -185 23 18 27
58 18 183 -17 247 75 436 167 344 123 -123 175 -424 120 -685 -41 -193 -40
-234 5 -259 78 -41 127 74 82 192 -20 53 -3 419 36 787 l14 130 13 -110 c24
-189 20 -957 -5 -1092 -24 -130 -6 -228 43 -228 45 0 60 102 41 276 -45 396
-30 1095 25 1189 76 131 53 472 -44 641 -61 107 -65 124 -52 232 17 151 -44
230 -245 314 -171 72 -164 59 -165 310 -1 693 -120 1195 -338 1420 -138 141
-304 170 -612 106z m448 -174 c107 -38 139 -100 184 -364 22 -134 63 -291 93
-356 102 -230 53 -409 -107 -387 -101 14 -116 -11 -28 -47 33 -14 60 -31 60
-37 0 -53 -110 -404 -167 -533 -38 -88 -84 -217 -103 -287 -51 -200 -110 -341
-150 -363 -118 -63 -174 16 -201 284 -24 223 -53 337 -168 655 -103 281 -106
301 -52 301 21 0 44 9 51 20 7 11 -10 20 -40 20 -108 0 -190 94 -190 219 0 91
176 724 217 781 81 113 402 163 601 94z m-778 -1529 c105 -249 142 -380 161
-569 21 -199 51 -285 139 -396 82 -104 79 -129 -15 -110 -137 27 -226 15 -342
-45 -123 -64 -146 -63 -222 9 -90 86 -157 110 -283 103 -145 -9 -153 21 -57
232 33 74 67 185 75 248 14 110 17 114 109 164 189 102 298 245 325 424 20
128 34 121 110 -60z m1185 -216 c44 -50 123 -112 175 -139 92 -46 94 -51 105
-156 7 -60 35 -154 63 -211 90 -177 66 -603 -34 -603 -2 0 -32 8 -66 18 -80
23 -148 -7 -296 -128 -140 -113 -151 -105 -152 113 0 175 -28 254 -127 364
-59 65 -67 85 -53 130 10 29 46 143 80 252 76 238 177 451 215 451 5 0 46 -41
90 -91z"/>
<path d="M2900 4615 c-43 -69 -110 -150 -149 -181 -112 -88 -124 -126 -50
-165 182 -94 449 226 367 439 -26 68 -89 33 -168 -93z"/>
<path d="M3238 4694 c-87 -190 156 -530 319 -446 82 43 80 62 -21 158 -46 44
-107 125 -135 180 -71 137 -131 177 -163 108z"/>
<path d="M3060 4195 c-56 -92 -54 -95 80 -95 66 0 120 7 120 15 0 44 -84 145
-120 145 -24 0 -56 -26 -80 -65z"/>
<path d="M3012 3874 c-75 -75 -80 -189 -23 -591 28 -199 51 -370 51 -381 0
-42 75 -64 107 -32 98 98 202 832 135 956 -53 99 -194 123 -270 48z"/>
<path d="M1791 455 c21 -68 48 -90 70 -55 12 20 18 22 19 5 0 -42 34 -28 49
20 l13 45 18 -45 c21 -50 51 -59 67 -20 8 20 10 20 11 0 3 -41 38 -28 53 20
l15 44 16 -44 c18 -48 58 -62 58 -20 1 17 7 15 20 -5 23 -35 59 3 60 62 0 39
-76 37 -101 -3 -15 -24 -18 -23 -19 6 0 36 -83 40 -136 8 -13 -9 -24 -6 -24 5
0 26 -125 19 -145 -8 -9 -12 -15 -10 -15 5 0 14 -10 25 -21 25 -13 0 -16 -18
-8 -45z"/>
<path d="M2300 460 c0 -22 -9 -40 -20 -40 -11 0 -20 -9 -20 -20 0 -36 64 -21
103 23 l37 43 2 -48 c0 -26 6 -36 12 -22 8 20 16 21 40 1 25 -21 28 -16 23 34
-9 76 -177 103 -177 29z"/>
<path d="M2500 440 c0 -45 9 -60 37 -60 27 0 37 16 39 60 1 47 -7 60 -37 60
-30 0 -39 -14 -39 -60z"/>
<path d="M2600 440 c0 -58 3 -59 85 -55 71 4 84 12 81 45 -3 35 1 33 34 -10
35 -46 39 -47 52 -13 12 33 16 34 32 5 23 -40 96 -42 96 -3 0 18 -12 25 -30
18 -16 -6 -30 -1 -30 11 0 12 14 22 30 22 17 0 30 9 30 20 0 28 -120 12 -139
-19 -12 -18 -18 -16 -28 7 -19 50 -120 43 -107 -8 6 -25 0 -40 -16 -40 -16 0
-22 15 -16 40 8 31 1 40 -32 40 -33 0 -42 -12 -42 -60z"/>
<path d="M3000 441 c0 -59 125 -79 199 -32 19 12 31 10 36 -5 12 -35 41 -29
51 11 9 33 9 33 12 0 3 -49 40 -43 61 10 l18 45 2 -47 c1 -40 6 -44 31 -23 21
17 30 18 30 2 0 -12 9 -22 20 -22 11 0 20 28 20 62 0 54 -4 59 -30 38 -21 -17
-30 -18 -30 -2 0 12 -18 22 -40 22 -25 0 -40 -13 -40 -35 -1 -28 -4 -30 -19
-7 -12 20 -65 30 -169 34 l-152 5 0 -56z"/>
<path d="M3503 448 l-3 -62 305 2 c168 1 316 9 330 18 15 10 25 6 25 -10 1
-19 4 -20 16 -2 10 16 25 18 45 5 48 -30 59 -22 59 41 0 61 -27 81 -48 35 -10
-20 -14 -20 -24 0 -17 37 -48 30 -48 -10 -1 -30 -3 -31 -20 -5 -30 48 -182 46
-195 -2 -13 -49 -38 -49 -51 2 -15 58 -94 54 -95 -5 l-2 -45 -21 45 c-28 57
-49 57 -67 0 l-15 -44 -16 44 c-21 56 -70 58 -103 5 -32 -52 -50 -51 -61 5 -6
34 -9 30 -11 -17z"/>
</g>
</svg>
