<?xml version="1.0" standalone="no"?>
<!DOCTYPE svg PUBLIC "-//W3C//DTD SVG 20010904//EN"
 "http://www.w3.org/TR/2001/REC-SVG-20010904/DTD/svg10.dtd">
<svg version="1.0" xmlns="http://www.w3.org/2000/svg"
 width="300.000000pt" height="323.000000pt" viewBox="0 0 300.000000 323.000000"
 preserveAspectRatio="xMidYMid meet">
<metadata>
Created by potrace 1.10, written by Peter Selinger 2001-2011
</metadata>
<g transform="translate(0.000000,323.000000) scale(0.100000,-0.100000)"
fill="#000000" stroke="none">
<path d="M1370 3024 c-188 -54 -299 -133 -355 -251 -29 -62 -30 -63 -100 -89
-104 -40 -155 -67 -206 -112 -142 -126 -172 -386 -66 -586 41 -78 143 -179
232 -232 l70 -41 6 -84 c6 -71 4 -90 -12 -121 -24 -46 -54 -68 -96 -68 -30 0
-33 -3 -33 -30 0 -45 -82 -143 -209 -249 -131 -109 -192 -176 -231 -254 -40
-79 -51 -145 -48 -273 l3 -109 27 2 c19 1 29 -4 33 -18 9 -29 31 -23 54 15 12
19 40 51 63 71 41 38 181 109 272 139 47 16 49 16 103 -9 31 -14 58 -25 61
-25 3 0 -12 18 -33 40 l-39 40 34 35 c42 44 110 77 147 73 25 -3 28 -8 31 -42
2 -28 22 -67 71 -140 64 -95 101 -158 101 -171 0 -3 -7 -5 -15 -5 -8 0 -37 28
-66 62 -48 60 -98 98 -126 98 -27 0 -11 -23 67 -98 44 -43 80 -82 80 -88 0
-17 -49 -36 -115 -44 -44 -5 -83 -20 -147 -56 -48 -27 -87 -52 -88 -56 0 -4
19 -8 43 -10 42 -3 42 -3 45 -45 l3 -43 67 0 c37 0 104 -3 149 -7 l82 -6 -6
-28 c-5 -28 -5 -29 39 -29 64 0 138 25 200 67 49 33 61 37 151 44 99 8 238 26
270 35 11 4 17 15 17 35 0 26 6 33 40 46 30 12 40 22 40 39 0 34 24 51 88 64
31 6 69 13 84 16 33 6 44 19 55 64 l9 34 105 18 c170 30 227 70 117 83 -34 4
-69 11 -78 16 -8 5 -27 13 -41 18 -22 8 -27 17 -32 63 -4 29 -7 72 -7 96 0 26
-4 41 -10 37 -5 -3 -10 -45 -10 -93 l0 -87 -37 -3 c-26 -2 -43 4 -59 19 l-23
22 -61 -22 c-85 -31 -135 -23 -155 26 -10 24 -12 40 -5 53 15 28 13 34 -28 81
-21 24 -46 64 -56 89 -10 25 -20 51 -23 57 -6 16 33 18 42 3 8 -13 41 -13 82
2 22 8 38 9 47 3 69 -51 62 -50 103 -16 44 36 54 38 77 12 16 -17 20 -18 67
-4 109 32 177 -15 235 -162 20 -52 41 -95 46 -95 8 0 -28 104 -57 161 -15 31
-47 82 -111 177 -29 45 -128 128 -189 159 -55 28 -136 53 -176 53 -16 0 -45
18 -83 51 -46 42 -56 57 -54 78 3 22 11 28 53 39 57 16 241 21 299 9 l39 -8
-24 29 c-13 16 -38 39 -55 51 -40 28 -120 27 -322 -3 l-153 -23 3 41 c3 37 7
43 42 60 33 16 59 19 160 17 67 -1 159 -9 204 -17 46 -9 86 -13 89 -11 7 8
-76 67 -124 88 -23 10 -59 21 -80 24 -21 4 -43 8 -50 10 -7 2 20 35 59 72 84
80 149 176 177 261 36 105 24 275 -25 358 -52 90 -187 174 -281 174 -82 0
-119 23 -143 89 -11 31 -28 75 -36 99 -20 55 -70 120 -113 149 -43 29 -83 29
-191 -3z m164 -13 c3 -4 -5 -6 -19 -4 -35 7 -123 -37 -180 -91 -65 -62 -119
-98 -178 -120 -93 -35 -80 -88 16 -68 29 6 93 19 142 30 63 13 101 16 125 10
19 -5 53 -13 75 -18 22 -5 62 -15 88 -21 39 -10 53 -10 69 0 17 11 22 10 29
-1 5 -7 9 -15 9 -18 2 -18 60 -42 122 -50 129 -19 158 -31 230 -103 70 -69 86
-121 84 -268 -1 -105 -2 -108 -44 -190 -32 -62 -65 -107 -128 -172 -85 -86
-86 -87 -135 -87 -50 0 -60 8 -35 29 20 17 55 121 51 156 -1 17 -3 38 -4 47 0
9 -9 24 -18 34 -14 14 -20 43 -25 133 -11 165 -21 227 -43 253 -29 33 -38 39
-57 34 -10 -2 -18 0 -18 4 0 5 -17 14 -37 21 -21 6 -43 16 -49 20 -6 5 -26 7
-45 5 -23 -3 -43 3 -63 17 -23 16 -32 18 -48 8 -15 -9 -30 -8 -70 4 -75 22
-159 20 -191 -5 -14 -11 -28 -20 -32 -20 -12 0 -65 -58 -65 -72 0 -8 -11 -25
-25 -38 l-25 -23 0 26 c0 14 -7 33 -16 42 -15 15 -18 14 -39 -5 -28 -27 -45
-90 -45 -169 l0 -60 -49 6 c-45 5 -51 3 -87 -30 -38 -34 -38 -36 -26 -71 7
-19 15 -45 17 -56 2 -12 10 -34 18 -50 8 -15 13 -39 10 -52 -3 -16 5 -33 25
-55 16 -18 32 -33 36 -33 4 0 16 -8 27 -19 17 -16 19 -29 17 -90 l-3 -71 -64
39 c-125 77 -215 199 -242 329 -7 34 -9 96 -6 154 6 117 33 185 101 252 40 40
142 101 186 111 8 2 36 13 61 24 45 20 60 41 100 135 9 21 97 99 129 116 134
67 327 119 344 91z m15 -46 c30 -15 91 -85 91 -104 0 -6 -16 6 -35 27 -49 53
-43 29 15 -58 27 -41 48 -76 45 -78 -2 -2 -64 10 -138 28 l-134 32 -139 -36
c-76 -19 -140 -33 -143 -31 -2 3 2 7 10 9 112 40 133 52 203 115 75 68 144
111 179 111 10 0 31 -7 46 -15z m-141 -404 c20 -10 46 -28 56 -40 31 -34 41
-24 12 13 -44 58 -30 63 35 12 47 -38 57 -39 39 -7 -6 12 -7 21 -1 21 5 0 12
-6 14 -12 4 -10 8 -10 15 1 8 11 12 10 21 -7 7 -13 18 -19 31 -17 12 2 31 -6
47 -21 30 -28 45 -31 36 -7 -12 31 17 3 37 -37 23 -45 25 -54 8 -44 -8 5 -9 2
-3 -12 4 -10 10 -34 13 -51 2 -18 8 -33 14 -33 5 0 9 -48 7 -117 -1 -107 -4
-124 -31 -181 -16 -35 -27 -71 -25 -80 3 -14 6 -12 15 8 6 14 11 18 12 10 0
-13 1 -13 10 0 9 13 11 13 20 0 8 -11 10 -4 10 30 0 25 0 62 0 83 0 50 17 38
26 -19 12 -79 -38 -195 -84 -194 -12 1 -9 8 13 25 29 24 29 25 7 25 -17 0 -27
-9 -37 -34 -20 -46 -40 -59 -32 -20 3 16 9 38 12 49 6 16 5 17 -4 5 -9 -12
-11 -11 -11 10 -1 19 -8 9 -30 -37 -18 -41 -35 -63 -45 -63 -14 0 -16 7 -13
35 2 19 2 35 0 35 -3 0 -42 -20 -88 -45 -77 -42 -87 -45 -159 -45 -68 0 -77
-2 -82 -20 -3 -11 -10 -20 -15 -20 -6 0 -7 8 -3 18 26 63 27 74 14 88 -12 12
-14 8 -14 -26 0 -22 -7 -46 -15 -54 -13 -13 -15 -3 -18 87 -4 120 -21 168 -22
62 -1 -62 -2 -68 -15 -51 -10 13 -12 36 -8 86 3 37 2 94 -2 126 -7 52 -8 56
-17 34 -6 -14 -7 -64 -3 -117 3 -54 2 -94 -3 -97 -15 -9 -30 44 -24 82 6 42
-13 42 -23 0 -6 -26 -9 -29 -12 -13 -4 19 -31 106 -41 133 -2 6 0 12 6 12 5 0
13 -15 18 -32 l8 -33 4 35 c2 19 1 54 -3 78 -6 41 -8 42 -21 25 -14 -16 -15
-13 -11 39 2 34 0 55 -6 51 -5 -3 -6 8 -1 28 4 19 9 45 10 59 1 14 3 28 3 32
1 5 17 26 37 48 20 22 34 43 30 47 -8 8 23 43 39 43 7 0 23 9 36 21 21 19 32
21 97 15 40 -3 89 -14 110 -25z m-364 -509 c19 -85 29 -108 56 -122 11 -6 24
-28 30 -50 10 -37 13 -40 45 -40 25 0 35 -5 35 -15 0 -11 -7 -14 -25 -9 -28 7
-32 -4 -14 -37 15 -29 1 -78 -30 -106 l-26 -25 21 -17 c19 -15 20 -22 12 -91
-5 -41 -10 -79 -12 -85 -5 -14 -24 37 -47 125 -20 75 -44 313 -34 329 3 5 -2
12 -11 15 -13 5 -14 9 -4 21 11 13 10 14 -6 8 -17 -6 -17 -5 -5 10 8 10 9 17
3 17 -6 0 -15 -7 -20 -17 -9 -14 -10 -14 -16 5 -5 14 -2 28 8 38 20 19 19 33
-4 164 l-19 105 5 -80 c2 -44 7 -96 10 -115 4 -30 4 -32 -7 -16 -8 13 -14 81
-17 186 -4 159 -4 168 19 216 l23 49 7 -195 c4 -122 12 -222 23 -268z m-124
198 c22 -6 23 -8 7 -15 -9 -4 -28 -4 -41 -1 -23 6 -53 -14 -40 -27 3 -3 0 -16
-7 -28 -11 -21 -9 -21 22 5 33 28 34 28 37 8 2 -11 -8 -39 -22 -61 -14 -22
-26 -49 -26 -58 0 -30 -18 6 -25 52 -4 22 -13 50 -21 63 -13 20 -12 24 10 47
26 26 58 30 106 15z m33 -110 c5 -73 5 -74 -8 -35 -15 44 -19 98 -8 108 9 10
10 9 16 -73z m-33 -40 c0 -33 -3 -38 -17 -33 -15 6 -16 4 -5 -9 7 -9 24 -19
38 -22 22 -6 25 -11 20 -31 -4 -17 -2 -25 6 -26 9 0 10 -2 1 -5 -8 -4 -6 -14
6 -37 19 -33 65 -206 57 -214 -2 -2 -12 22 -21 54 -21 77 -25 87 -29 82 -8 -9
29 -183 70 -332 50 -177 48 -167 34 -167 -6 0 -19 19 -30 43 -19 43 -28 29
-10 -17 6 -17 6 -26 0 -26 -5 0 -13 19 -17 43 l-8 42 -5 -40 c-6 -45 -24 -54
-71 -35 -30 13 -40 44 -16 53 6 2 21 28 31 57 10 28 25 54 32 57 11 4 11 11
-1 39 -8 19 -10 34 -6 34 5 0 14 -14 22 -32 7 -17 15 -26 17 -20 2 6 -4 25
-14 43 -22 44 -43 168 -44 260 l0 75 -40 18 c-37 16 -96 73 -86 83 3 3 17 -8
31 -23 20 -23 24 -24 16 -7 -15 30 -14 57 3 98 20 47 36 44 36 -5z m119 -204
c0 -11 -4 -29 -8 -40 -5 -14 -9 -8 -17 26 -10 42 -9 45 8 40 11 -2 18 -13 17
-26z m526 -65 c20 -8 20 -8 0 -14 -51 -14 -75 -17 -75 -9 0 8 37 31 50 31 3 0
14 -4 25 -8z m380 -36 c47 -9 103 -24 123 -35 l37 -19 -90 7 c-116 9 -317 8
-378 -2 -26 -4 -56 -16 -66 -27 -24 -26 -70 -38 -100 -28 -18 7 -29 4 -52 -16
-38 -31 -71 -22 -80 24 -4 17 -15 41 -24 51 -21 23 -4 27 19 5 10 -11 37 -15
93 -15 55 0 85 -5 101 -16 20 -14 22 -14 22 1 0 8 -7 18 -16 22 -13 5 -13 7
-2 14 8 5 -15 9 -57 10 -64 1 -67 2 -30 10 54 11 117 11 111 0 -3 -4 3 -16 14
-26 18 -16 20 -16 20 -2 0 17 52 36 100 38 14 0 34 4 45 9 31 13 114 11 210
-5z m-338 -1 c-3 -3 -12 -4 -19 -1 -8 3 -5 6 6 6 11 1 17 -2 13 -5z m-397 -30
c0 -8 -4 -12 -10 -9 -5 3 -10 13 -10 21 0 8 5 12 10 9 6 -3 10 -13 10 -21z
m107 -50 c3 -8 -13 -66 -35 -127 -23 -62 -47 -138 -53 -170 -14 -64 -22 -75
-46 -55 -14 11 -15 32 -9 154 9 215 7 210 94 213 30 1 44 -4 49 -15z m322 -25
c-29 -23 -48 -24 -56 -4 -7 20 -1 26 39 34 41 9 49 -6 17 -30z m-96 -67 c19
-17 24 -3 5 16 -6 6 -9 15 -5 19 11 11 36 -30 37 -59 0 -21 -5 -28 -20 -28
-13 0 -20 7 -20 20 0 11 -6 20 -14 20 -26 0 -68 -43 -128 -134 -86 -128 -117
-166 -146 -177 -23 -9 -24 -10 -7 -35 19 -29 16 -38 -9 -28 -21 8 -21 74 0
117 22 43 151 243 186 289 l29 37 37 -21 c20 -12 45 -28 55 -36z m-3 48 c-20
-13 -33 -13 -25 0 3 6 14 10 23 10 15 0 15 -2 2 -10z m115 -37 c-5 -15 -7 -15
-22 0 -16 16 -16 18 2 31 18 13 20 13 23 0 2 -8 1 -22 -3 -31z m-287 -12 c3
-8 -1 -12 -9 -9 -7 2 -15 10 -17 17 -3 8 1 12 9 9 7 -2 15 -10 17 -17z m780
-1 c17 -11 32 -21 32 -23 0 -2 -46 -2 -102 0 -80 3 -119 0 -174 -15 -60 -16
-74 -17 -89 -5 -11 7 -46 14 -79 14 -59 1 -57 2 39 16 275 39 327 41 373 13z
m-1088 -41 c0 -6 -4 -7 -10 -4 -5 3 -10 11 -10 16 0 6 5 7 10 4 6 -3 10 -11
10 -16z m244 -63 c-48 -87 -57 -63 -12 33 16 33 23 40 29 28 6 -10 0 -30 -17
-61z m424 57 c-31 -8 -20 -23 17 -23 31 0 55 -19 55 -44 0 -3 -31 -6 -70 -6
-65 0 -72 2 -100 31 -16 17 -27 35 -24 40 3 5 35 8 72 8 37 -1 59 -3 50 -6z
m-185 -26 c24 -13 54 -26 66 -30 33 -8 26 -22 -35 -72 -31 -25 -92 -86 -136
-135 -44 -50 -85 -90 -91 -90 -7 0 -27 9 -45 20 l-34 21 25 32 c21 28 164 224
192 263 12 17 6 18 58 -9z m234 17 c-3 -3 -12 -4 -19 -1 -8 3 -5 6 6 6 11 1
17 -2 13 -5z m-662 -172 c-7 -7 -9 -4 -33 74 -32 102 -26 114 9 15 16 -47 27
-87 24 -89z m704 135 c0 -21 -1 -21 -9 -2 -12 28 -12 37 0 30 6 -3 10 -16 9
-28z m112 -155 c81 -82 154 -182 134 -182 -3 0 -49 46 -103 102 -53 55 -118
118 -144 138 -26 21 -44 41 -40 44 18 19 66 -14 153 -102z m-241 88 c0 -12
-44 -24 -62 -17 -8 3 -4 9 12 15 32 14 50 14 50 2z m110 -39 c35 -28 23 -32
-40 -14 -64 18 -64 18 -55 33 5 8 11 8 21 -1 11 -9 14 -8 14 5 0 18 14 13 60
-23z m-914 -31 c0 -14 -7 -20 -23 -20 -16 0 -23 6 -23 20 0 14 7 20 23 20 16
0 23 -6 23 -20z m731 -6 c3 -8 9 -11 14 -8 5 3 9 -8 9 -25 0 -31 28 -66 62
-77 15 -4 26 -24 14 -24 -2 0 -11 -3 -20 -6 -10 -4 -16 -1 -16 8 0 8 -12 25
-26 39 -14 13 -35 39 -46 57 l-21 34 -13 -23 c-17 -31 -17 -44 -1 -30 17 13
27 5 27 -24 0 -34 -19 -45 -67 -38 -53 7 -78 -11 -94 -70 -11 -42 -6 -58 13
-39 15 15 55 16 63 2 3 -6 -5 -14 -18 -19 -26 -10 -45 -31 -28 -31 15 0 94 63
99 80 4 13 3 13 -11 2 -9 -8 -24 -12 -33 -10 -13 2 -6 10 24 30 23 16 49 39
58 53 13 20 19 23 30 14 21 -17 17 -48 -8 -60 -20 -8 -18 -9 10 -5 38 6 40 1
10 -31 -28 -30 -15 -43 16 -14 18 17 26 19 32 10 4 -7 3 -14 -2 -16 -40 -15
-119 -60 -122 -70 -2 -7 26 3 63 22 80 42 107 44 134 9 26 -33 28 -59 4 -49
-37 15 -105 18 -129 5 -32 -18 -31 -32 2 -20 58 22 144 2 144 -34 0 -10 -12
-10 -62 0 -75 16 -118 17 -138 4 -11 -7 -1 -10 36 -10 57 0 164 -19 164 -30 0
-6 -98 -40 -117 -41 -4 0 -9 4 -11 10 -2 7 11 11 32 11 19 0 37 4 40 9 4 5
-26 9 -67 8 -39 -1 -92 2 -117 6 -43 7 -44 6 -20 -8 14 -8 47 -14 75 -15 l49
0 -24 -17 c-14 -10 -32 -26 -40 -36 -19 -23 -60 -15 -87 16 l-18 21 27 -17
c15 -9 29 -13 32 -8 3 5 -14 21 -38 36 -57 36 -73 66 -82 153 -4 47 -10 69
-15 60 -7 -10 -9 -10 -9 2 1 35 43 104 102 165 52 53 67 63 86 58 13 -3 26
-12 29 -19z m133 11 c96 -23 131 -35 125 -46 -9 -14 -77 -10 -105 6 -37 21
-40 19 -40 -25 0 -46 -7 -49 -44 -15 -32 29 -37 96 -7 95 3 0 35 -7 71 -15z
m-610 -20 c0 -8 -4 -15 -10 -15 -5 0 -7 7 -4 15 4 8 8 15 10 15 2 0 4 -7 4
-15z m911 -30 c72 -16 158 -69 235 -142 47 -45 50 -63 12 -63 -17 0 -48 -5
-69 -12 -33 -9 -42 -9 -57 5 -26 23 -50 21 -88 -8 -40 -30 -38 -30 -74 -3 -28
20 -34 21 -79 9 -37 -9 -55 -10 -71 -1 -11 6 -29 10 -39 8 -25 -4 -89 42 -94
69 -2 13 2 28 10 35 8 6 12 17 9 25 -3 8 -1 21 5 31 9 14 25 17 83 16 l72 -1
45 -48 c24 -26 57 -61 73 -78 l30 -29 18 22 c24 30 17 51 -40 124 -41 53 -43
59 -21 52 13 -4 31 -8 40 -11z m-853 -73 c5 -57 6 -58 115 -68 l69 -7 -4 -129
c-3 -143 -5 -148 -71 -148 -56 0 -73 13 -81 62 -4 24 -18 79 -32 123 -18 57
-24 92 -20 122 3 23 1 45 -4 48 -6 3 -10 23 -10 43 0 34 1 35 16 20 9 -9 19
-39 22 -66z m-268 56 c72 -10 89 -16 112 -40 14 -15 31 -28 37 -28 6 0 11 -7
11 -16 0 -10 -6 -14 -14 -11 -64 25 -199 49 -240 43 -59 -9 -60 -25 -2 -19 50
6 136 -4 136 -16 0 -4 -17 -13 -37 -21 -21 -7 -109 -44 -196 -83 -172 -76
-204 -101 -236 -188 -14 -36 -21 -44 -41 -44 -66 0 -1 111 133 228 40 34 100
90 135 124 62 62 88 82 107 83 6 0 48 -5 95 -12z m198 0 c7 -7 12 -30 12 -52
l0 -40 -45 44 c-25 24 -45 48 -45 52 0 13 65 9 78 -4z m392 -94 c0 -3 -7 -12
-15 -21 -20 -19 -32 -9 -15 12 12 15 30 20 30 9z m-373 -47 c3 -48 57 -242 75
-268 12 -19 27 -25 73 -29 l57 -5 20 -50 c11 -27 26 -57 34 -66 8 -8 14 -29
14 -46 0 -34 12 -47 50 -56 14 -3 57 -13 97 -21 39 -9 97 -25 128 -36 32 -11
61 -17 66 -14 5 3 9 0 9 -5 0 -20 45 -11 59 11 7 12 16 48 18 80 5 47 9 58 24
58 10 0 22 8 28 18 9 16 11 16 41 -1 35 -21 93 -25 114 -8 7 6 33 14 58 17 37
5 46 3 52 -11 5 -13 17 -16 59 -14 28 1 66 -4 82 -11 17 -7 48 -18 70 -25 48
-15 39 -20 -75 -35 -85 -12 -120 -30 -120 -63 0 -33 -29 -51 -101 -64 -62 -10
-79 -17 -101 -43 -16 -16 -28 -37 -28 -45 0 -8 -6 -15 -12 -15 -20 -1 -57 -35
-67 -63 -8 -22 -18 -26 -88 -35 -43 -6 -109 -14 -148 -18 -38 -3 -83 -7 -98
-9 -16 -1 -52 -18 -80 -38 -52 -35 -139 -67 -184 -67 -16 0 -23 6 -23 19 0 37
-27 45 -161 49 -122 4 -129 5 -129 25 0 11 -9 31 -20 42 l-21 22 54 26 c30 14
76 28 103 32 61 8 111 30 127 56 6 10 19 19 28 19 25 0 51 34 42 56 -8 22 -64
116 -73 124 -3 3 -17 23 -30 45 -13 22 -30 46 -38 54 -18 19 -34 61 -28 76 2
7 -6 24 -20 40 -21 25 -28 27 -68 21 -50 -8 -111 -48 -151 -100 -16 -21 -39
-37 -58 -42 -18 -3 -43 -11 -57 -17 -14 -5 -30 -11 -37 -13 -22 -4 -168 -77
-198 -98 -34 -24 -67 -58 -87 -88 -13 -20 -17 -20 -47 -7 l-32 14 2 115 c1 98
5 122 27 172 l25 59 22 -21 c39 -36 66 -23 100 46 17 34 37 69 45 79 14 17
149 85 168 85 5 0 15 7 22 15 7 8 21 15 32 15 10 0 42 12 71 27 29 15 57 28
64 29 7 1 27 9 44 18 26 13 40 14 71 6 31 -9 41 -8 53 4 23 23 50 9 52 -27z
m563 18 c7 -9 8 -15 2 -15 -5 0 -12 7 -16 15 -3 8 -4 15 -2 15 2 0 9 -7 16
-15z m-284 -243 c-3 -21 2 -53 15 -85 16 -40 18 -56 10 -74 -6 -13 -15 -23
-19 -23 -14 0 -53 110 -45 123 20 31 31 81 22 98 -14 27 -10 36 7 14 10 -13
14 -32 10 -53z m409 38 c9 -16 11 -30 6 -30 -11 0 -31 32 -31 49 0 19 9 12 25
-19z m15 -50 c0 -5 -13 -10 -30 -10 -16 0 -30 -4 -30 -10 0 -5 8 -6 18 -3 15
6 16 5 2 -12 -14 -17 -13 -17 10 -10 14 4 32 14 41 21 14 12 18 11 34 -6 18
-20 18 -22 2 -49 -20 -34 -22 -58 -4 -64 20 -6 -10 -36 -32 -30 -22 6 -38 -31
-44 -105 -2 -29 -6 -54 -9 -57 -2 -2 -53 11 -114 29 -60 18 -139 39 -177 46
-37 7 -70 16 -72 20 -3 5 4 32 15 60 11 28 20 71 20 95 0 25 3 45 6 45 3 0 19
-11 36 -25 41 -35 59 -31 86 15 12 22 28 40 34 40 9 0 9 -3 0 -12 -23 -23 -12
-29 21 -12 71 37 187 58 187 34z"/>
<path d="M1296 2541 c5 -5 34 -11 64 -15 50 -6 53 -5 36 9 -21 16 -117 22
-100 6z"/>
<path d="M1244 2494 c-18 -14 -17 -15 16 -10 19 3 52 2 73 -3 21 -5 37 -5 37
0 0 5 8 9 18 9 14 0 15 2 2 10 -25 16 -124 12 -146 -6z"/>
<path d="M1616 2474 c11 -15 20 -21 24 -14 4 7 19 2 44 -15 47 -32 56 -32 25
1 -27 29 -70 54 -94 54 -14 0 -14 -3 1 -26z"/>
<path d="M1420 2451 c0 -5 25 -22 55 -36 59 -29 60 -31 45 -69 -6 -16 -6 -27
0 -31 6 -4 5 -14 -3 -25 -13 -22 -2 -50 22 -58 10 -3 11 0 1 18 -11 20 -10 22
4 17 14 -6 15 -3 5 14 -6 12 -7 19 -1 16 5 -4 20 5 32 18 13 14 33 25 45 25
23 0 55 -28 55 -48 0 -7 6 -12 14 -12 8 0 16 -6 18 -12 7 -20 38 16 38 43 0
13 -12 36 -27 51 -23 24 -34 28 -84 28 -32 0 -61 5 -64 10 -3 6 -17 10 -31 10
-17 0 -24 5 -24 20 0 17 -3 18 -18 9 -14 -9 -25 -8 -50 5 -18 9 -32 12 -32 7z
m136 -115 c-17 -34 -30 -18 -16 20 7 18 14 24 21 17 6 -6 5 -19 -5 -37z m159
-7 c14 -22 -6 -21 -25 1 -11 13 -20 25 -20 27 0 7 39 -17 45 -28z"/>
<path d="M1265 2443 c-24 -6 -88 -53 -82 -60 3 -2 19 3 37 12 18 9 34 14 37
11 3 -2 -8 -11 -24 -20 -16 -8 -35 -22 -42 -30 -11 -13 -9 -17 14 -26 34 -13
34 -13 28 9 -4 14 4 24 27 36 40 21 77 8 82 -27 2 -17 9 -22 26 -21 14 2 22
-3 22 -12 0 -8 7 -15 15 -15 19 0 19 4 -1 42 -16 32 -9 47 24 48 6 0 12 4 12
10 0 5 -31 18 -69 30 -70 21 -73 21 -106 13z m105 -53 c0 -5 -4 -10 -9 -10 -6
0 -13 5 -16 10 -3 6 1 10 9 10 9 0 16 -4 16 -10z"/>
<path d="M1118 2418 c-21 -33 -39 -91 -31 -97 5 -3 13 -16 20 -27 9 -17 9 -24
-3 -35 -12 -13 -12 -24 1 -84 8 -38 12 -81 9 -95 -5 -25 -5 -25 11 -5 17 20
16 65 -1 153 -5 28 -3 34 15 39 11 3 21 9 21 13 0 5 -9 6 -20 3 -21 -6 -21 -6
-1 28 22 39 37 99 24 99 -5 0 -15 -6 -22 -12 -10 -11 -11 -8 -6 15 9 33 2 35
-17 5z"/>
<path d="M1257 2363 c-11 -10 -8 -25 3 -18 6 3 10 1 10 -4 0 -6 5 -11 11 -11
6 0 8 7 5 17 -6 14 -3 14 15 -3 21 -18 22 -18 16 -1 -4 10 -7 21 -7 23 0 7
-46 5 -53 -3z"/>
<path d="M1602 2318 c-14 -14 -16 -32 -3 -23 5 3 12 1 16 -5 3 -5 11 -10 17
-10 7 0 6 6 -2 15 -8 10 -9 15 -2 15 6 0 16 -8 21 -17 10 -17 10 -17 11 -1 0
10 -9 22 -19 28 -24 13 -24 13 -39 -2z"/>
<path d="M1225 2300 c3 -5 19 -10 35 -10 16 0 32 5 35 10 4 6 -10 10 -35 10
-25 0 -39 -4 -35 -10z"/>
<path d="M1290 2262 c-22 -22 -40 -45 -40 -52 0 -7 17 4 38 26 20 21 46 44 57
51 17 10 18 12 3 12 -9 1 -35 -16 -58 -37z"/>
<path d="M1440 2287 c0 -14 -3 -15 -19 -5 -15 9 -24 7 -46 -10 -16 -13 -22
-22 -13 -22 8 0 19 5 26 12 9 9 15 9 24 0 26 -26 56 -1 37 29 -7 11 -9 11 -9
-4z"/>
<path d="M1180 2269 c-12 -8 -8 -9 14 -6 l30 5 -25 -19 c-13 -10 -27 -19 -30
-19 -10 0 -17 -50 -9 -55 5 -3 17 10 28 29 11 19 34 42 51 51 17 8 31 18 31
20 0 10 -75 4 -90 -6z"/>
<path d="M1620 2251 c0 -13 25 -20 49 -14 33 9 24 23 -14 23 -19 0 -35 -4 -35
-9z"/>
<path d="M1330 2200 c-17 -22 -33 -53 -35 -68 -4 -28 -2 -29 35 -26 22 2 42
-1 45 -6 4 -6 25 -20 48 -31 36 -19 46 -20 74 -10 18 7 37 9 43 6 5 -3 10 -2
10 3 0 5 9 12 19 15 16 4 21 -4 31 -55 7 -32 17 -61 23 -65 6 -4 8 3 3 18 -3
13 -9 58 -13 101 l-6 76 39 11 c21 6 45 11 52 11 6 0 12 3 12 8 0 4 -24 7 -54
7 -30 0 -52 -4 -48 -9 3 -5 -8 -6 -26 -3 -35 7 -44 -8 -12 -18 34 -11 22 -29
-40 -59 l-58 -28 -51 27 c-61 33 -86 59 -78 80 8 19 41 19 57 0 26 -31 30 -13
4 20 -14 19 -30 35 -34 35 -5 0 -23 -18 -40 -40z"/>
<path d="M1209 2188 c-7 -101 -6 -158 2 -158 5 0 9 -8 9 -17 0 -10 5 -25 11
-33 7 -11 9 2 4 45 -4 33 -11 65 -15 70 -5 6 -5 17 0 25 13 20 13 80 0 80 -5
0 -10 -6 -11 -12z"/>
<path d="M1660 2145 c-23 -12 -25 -18 -22 -69 4 -66 22 -76 22 -12 0 25 5 48
10 51 7 4 8 -21 4 -77 -4 -46 -4 -81 -1 -78 10 9 28 183 20 191 -4 4 -19 2
-33 -6z"/>
<path d="M1732 2119 c-13 -16 -22 -36 -20 -45 2 -11 11 -2 27 25 28 51 25 59
-7 20z"/>
<path d="M1741 2073 c-16 -33 -22 -73 -12 -73 14 0 41 71 33 86 -7 12 -11 9
-21 -13z"/>
<path d="M1360 2062 c-45 -20 -102 -93 -82 -106 25 -15 139 -36 203 -36 116
-1 121 0 108 16 -6 7 -9 19 -6 26 7 20 -21 68 -41 69 -9 1 -35 3 -57 4 -22 1
-55 9 -72 19 -18 9 -33 16 -35 15 -2 0 -10 -3 -18 -7z m22 -67 c0 -5 -5 -11
-11 -13 -6 -2 -11 4 -11 13 0 9 5 15 11 13 6 -2 11 -8 11 -13z m48 -11 c0 -8
-7 -14 -15 -14 -15 0 -21 21 -9 33 10 9 24 -2 24 -19z m-104 -11 c-10 -10 -19
5 -10 18 6 11 8 11 12 0 2 -7 1 -15 -2 -18z m154 -7 c-13 -13 -35 7 -25 24 5
8 11 8 21 -1 10 -8 12 -15 4 -23z m40 10 c0 -8 -4 -18 -10 -21 -5 -3 -10 3
-10 14 0 12 5 21 10 21 6 0 10 -6 10 -14z"/>
<path d="M1285 1920 c3 -5 20 -10 36 -10 18 0 28 4 24 10 -3 6 -20 10 -36 10
-18 0 -28 -4 -24 -10z"/>
<path d="M1405 1901 c19 -9 113 -15 104 -7 -2 2 -31 6 -64 10 -40 4 -53 3 -40
-3z"/>
<path d="M1317 1860 c-16 -19 -16 -20 19 -20 21 0 33 -4 29 -10 -8 -13 49 -13
73 -1 9 5 28 14 42 19 l25 11 -25 0 c-14 1 -39 -3 -56 -8 -23 -7 -35 -4 -53
10 -29 24 -33 24 -54 -1z"/>
<path d="M1074 1906 c-12 -32 4 -200 28 -297 22 -88 23 -91 26 -51 2 26 -2 50
-10 59 -9 11 -13 56 -14 150 -1 81 -6 139 -13 146 -7 7 -12 5 -17 -7z"/>
<path d="M846 2124 c-4 -9 -4 -19 -1 -22 2 -3 7 3 11 12 4 9 4 19 1 22 -2 3
-7 -3 -11 -12z"/>
<path d="M890 2028 c0 -18 27 -44 37 -34 4 4 -3 16 -15 29 -18 17 -22 18 -22
5z"/>
<path d="M1206 1701 c-5 -8 -26 -249 -26 -301 0 -14 4 -20 8 -15 5 6 14 74 20
153 6 82 15 149 22 157 10 12 9 15 -3 15 -9 0 -18 -4 -21 -9z"/>
<path d="M1275 1700 c-8 -13 4 -32 16 -25 12 8 12 35 0 35 -6 0 -13 -4 -16
-10z"/>
<path d="M1358 1520 c-117 -178 -123 -190 -105 -190 7 0 31 30 52 68 22 37 66
107 98 156 32 48 56 93 54 100 -2 6 -47 -54 -99 -134z"/>
<path d="M1878 1608 c-27 -6 -48 -14 -48 -19 0 -10 25 -5 95 17 48 14 19 16
-47 2z"/>
<path d="M1483 1527 c-11 -12 -48 -64 -82 -115 -51 -77 -60 -96 -50 -108 10
-12 19 -1 55 65 23 44 57 101 74 126 34 50 36 69 3 32z"/>
<path d="M1536 1479 c-15 -22 -25 -43 -23 -45 5 -5 67 69 67 80 0 17 -20 1
-44 -35z"/>
<path d="M1313 1275 c-3 -9 -3 -18 0 -22 10 -10 37 6 37 22 0 20 -29 20 -37 0z"/>
<path d="M1566 1159 c-8 -12 -34 -35 -58 -51 l-43 -29 34 6 c18 4 42 16 52 26
10 10 24 19 30 19 5 0 7 5 4 10 -4 6 -1 17 5 25 8 10 9 15 2 15 -6 0 -18 -10
-26 -21z"/>
<path d="M1520 1061 c21 -6 22 -8 8 -14 -10 -3 -18 -11 -18 -17 0 -6 11 -3 25
6 34 22 31 34 -7 33 -31 -1 -31 -2 -8 -8z"/>
<path d="M1242 963 c2 -10 10 -18 18 -18 22 0 18 29 -3 33 -14 3 -18 -1 -15
-15z"/>
</g>
</svg>
