<?xml version="1.0" standalone="no"?>
<!DOCTYPE svg PUBLIC "-//W3C//DTD SVG 20010904//EN"
 "http://www.w3.org/TR/2001/REC-SVG-20010904/DTD/svg10.dtd">
<svg version="1.0" xmlns="http://www.w3.org/2000/svg"
 width="300.000000pt" height="299.000000pt" viewBox="0 0 300.000000 299.000000"
 preserveAspectRatio="xMidYMid meet">
<metadata>
Created by potrace 1.10, written by Peter Selinger 2001-2011
</metadata>
<g transform="translate(0.000000,299.000000) scale(0.100000,-0.100000)"
fill="#000000" stroke="none">
<path d="M1506 2675 c19 -30 5 -33 -21 -5 -10 11 -28 20 -39 19 -12 0 -15 -3
-8 -6 23 -9 1 -23 -38 -23 -21 0 -45 -3 -54 -6 -28 -11 -17 -22 19 -20 53 5
42 -9 -22 -28 -66 -18 -108 -41 -58 -32 29 6 29 5 -17 -38 -37 -34 -49 -53
-54 -85 -4 -27 -13 -42 -25 -46 -12 -4 -19 -16 -19 -32 0 -16 -13 -37 -37 -60
-37 -33 -37 -34 -10 -28 32 8 36 -8 10 -38 -17 -19 -17 -19 5 -13 25 8 28 -1
7 -28 -19 -25 -19 -40 0 -32 17 6 19 -6 5 -52 -7 -27 -6 -33 5 -29 9 4 15 -6
20 -34 4 -23 11 -36 17 -33 13 8 28 -14 28 -42 0 -12 6 -27 14 -34 23 -18 8
-37 -35 -44 -45 -7 -48 -19 -20 -74 36 -71 35 -80 -1 -102 -50 -30 -61 -26
-42 14 15 31 15 37 -2 81 -23 63 -82 135 -128 159 -34 18 -38 18 -77 3 -41
-16 -42 -16 -71 8 -34 29 -55 31 -78 10 -15 -13 -16 -37 -12 -198 5 -213 0
-237 -51 -237 -37 0 -64 -23 -92 -80 -10 -19 -26 -44 -36 -56 -11 -11 -26 -45
-34 -76 -7 -30 -29 -79 -47 -108 -43 -69 -43 -117 0 -194 31 -55 32 -58 32
-186 0 -71 4 -130 9 -130 5 0 10 70 13 155 3 127 7 158 20 172 14 13 20 14 32
3 14 -11 16 -48 16 -251 0 -201 2 -239 14 -239 8 0 17 3 19 8 2 4 1 84 -4 177
-4 94 -6 184 -3 202 8 44 33 51 47 13 8 -20 18 -30 33 -30 11 0 35 -5 52 -11
48 -17 55 -57 51 -309 -4 -198 -3 -215 14 -218 16 -3 17 12 17 201 0 255 10
289 72 256 18 -10 24 -8 38 11 10 13 25 21 36 18 18 -3 19 -14 19 -180 0 -119
4 -181 11 -188 23 -23 28 15 25 178 -2 144 -1 166 15 183 22 25 46 24 70 -2
17 -19 19 -42 22 -261 2 -180 6 -238 15 -235 9 3 13 69 17 238 3 129 9 242 14
252 13 28 39 16 48 -23 5 -19 8 -91 7 -160 -3 -186 -2 -200 17 -200 14 0 15
16 10 143 -7 160 0 234 26 251 14 9 21 6 33 -11 9 -13 28 -23 48 -25 l32 -3 6
-185 c4 -102 7 -204 8 -228 1 -30 5 -42 14 -39 9 3 12 53 12 203 1 213 9 255
50 262 11 2 32 15 46 28 l25 24 23 -24 23 -25 -7 -264 c-5 -180 -4 -267 3
-271 17 -10 20 18 27 279 4 145 11 255 17 263 18 21 48 14 58 -14 6 -14 10
-61 10 -105 0 -43 4 -79 9 -79 8 0 21 102 21 173 0 39 22 53 34 21 5 -12 14
-14 37 -9 22 5 34 3 40 -6 5 -8 9 -98 9 -201 0 -159 2 -188 15 -188 19 0 29
40 21 93 -10 68 -9 298 0 307 5 5 38 6 74 2 l65 -7 7 -164 c6 -146 15 -197 33
-179 9 8 9 27 0 199 -8 172 0 229 36 229 25 0 29 -21 37 -196 5 -94 11 -149
18 -151 8 -3 13 53 16 191 l4 195 33 64 33 64 -25 135 c-35 190 -84 277 -186
335 -25 14 -57 33 -71 43 -14 10 -63 27 -109 39 -120 30 -157 50 -153 81 2 14
15 42 29 62 31 45 26 61 -27 88 -22 11 -40 23 -40 26 0 27 25 94 34 91 14 -5
46 105 44 153 0 26 -2 29 -5 10 -10 -61 -25 -90 -45 -90 -11 0 -18 -5 -15 -12
2 -7 12 -11 22 -10 16 3 17 2 6 -12 -8 -9 -21 -14 -31 -11 -22 7 -40 -50 -33
-103 7 -49 -12 -86 -71 -140 -67 -62 -93 -57 -33 7 31 33 31 34 5 18 -43 -27
-33 -7 22 48 27 27 48 51 46 53 -2 2 -23 -9 -45 -24 -23 -15 -53 -26 -69 -25
-15 1 -63 1 -106 1 -79 0 -79 0 -115 38 -21 21 -45 61 -54 88 -10 27 -24 62
-32 77 -8 16 -15 42 -15 58 0 16 -4 29 -10 29 -15 0 -12 -35 5 -77 19 -44 19
-63 1 -63 -18 0 -39 60 -30 86 5 16 4 16 -5 4 -8 -11 -11 0 -11 46 0 83 34
112 61 50 6 -14 7 -1 3 39 -7 69 -13 83 -25 64 -7 -11 -9 -11 -9 -1 0 13 49
91 90 145 20 24 20 26 3 21 -17 -5 -17 -5 1 10 26 21 90 29 201 24 72 -3 98
-8 114 -22 18 -17 20 -17 29 1 9 16 11 14 18 -12 4 -17 20 -53 36 -81 15 -28
28 -65 28 -82 0 -18 5 -32 11 -32 6 0 9 -6 6 -12 -18 -50 -18 -58 0 -58 11 0
24 -5 31 -12 7 -7 12 -8 12 -4 0 5 7 3 15 -4 9 -7 15 -8 15 -2 0 5 -12 18 -27
27 l-27 18 22 15 c26 17 30 34 6 25 -14 -5 -15 -3 -5 15 7 12 8 22 3 22 -11 0
-32 60 -32 92 0 15 -3 33 -6 42 -8 21 -25 10 -18 -12 5 -15 4 -15 -9 1 -9 11
-13 25 -11 32 10 25 -89 151 -108 139 -13 -8 -38 16 -38 36 0 10 -7 23 -15 30
-12 10 -15 10 -15 0 0 -9 -5 -8 -18 3 -27 25 -35 21 -16 -8z m57 -83 l31 -31
-105 1 c-57 1 -108 3 -112 6 -8 4 33 46 55 56 7 3 33 4 56 2 33 -2 51 -11 75
-34z m-573 -622 c0 -5 -9 -10 -19 -10 -11 0 -23 -4 -26 -10 -4 -6 11 -7 40 -3
36 4 50 2 65 -12 31 -28 24 -35 -27 -30 -35 4 -42 3 -28 -4 11 -5 33 -10 49
-10 32 -1 66 -26 66 -48 0 -10 -5 -11 -19 -3 -24 12 -31 13 -31 2 0 -5 16 -16
35 -25 36 -17 45 -45 26 -76 -8 -12 -12 -12 -25 -2 -13 11 -17 11 -20 0 -3 -8
-10 -31 -16 -51 -6 -20 -26 -56 -44 -80 -18 -24 -47 -80 -65 -126 -18 -45 -37
-84 -41 -87 -13 -8 -60 13 -100 45 -21 17 -45 30 -54 30 -22 0 -20 33 5 82 18
34 23 70 30 195 5 85 13 162 19 173 16 31 180 76 180 50z m331 -95 c41 -33 49
-35 119 -35 41 0 80 -4 87 -8 7 -5 11 -26 9 -56 -3 -38 -10 -55 -33 -78 -29
-28 -31 -29 -44 -12 -40 51 -132 135 -168 153 -42 22 -50 38 -29 59 15 15 8
18 59 -23z m464 -13 c0 -6 -21 -25 -47 -41 -58 -37 -64 -22 -7 16 35 23 39 28
25 39 -25 18 -19 28 7 12 12 -9 22 -20 22 -26z m-518 -52 c68 -39 140 -110
173 -173 28 -52 33 -56 46 -27 11 24 177 210 183 205 2 -2 -4 -22 -13 -45 -9
-22 -12 -40 -7 -40 5 0 14 13 21 30 7 16 16 27 20 25 5 -3 11 -1 15 5 10 17
25 11 18 -7 -4 -11 -3 -14 5 -9 18 11 14 -15 -8 -59 -11 -22 -20 -40 -20 -41
0 -1 11 1 24 3 20 4 26 -1 34 -29 6 -18 14 -60 17 -93 13 -115 30 -129 26 -20
-3 72 5 79 44 41 l23 -23 19 24 c27 37 48 21 79 -58 15 -39 31 -72 35 -74 3
-3 4 16 1 40 -5 49 4 57 33 25 21 -24 32 -126 16 -150 -8 -12 -12 -12 -29 3
-30 27 -156 67 -236 73 l-73 7 -6 -151 c-3 -86 -1 -167 4 -186 14 -49 59 -83
129 -97 50 -10 62 -16 74 -40 8 -16 11 -31 6 -34 -4 -3 -11 2 -14 10 -4 13
-16 14 -55 9 -78 -10 -94 -2 -140 71 -23 35 -41 67 -41 71 0 3 -28 37 -61 75
-34 38 -67 86 -74 107 -23 65 3 55 39 -16 15 -29 40 -57 65 -74 23 -15 41 -26
41 -24 0 2 -5 17 -11 35 -8 23 -8 57 1 131 14 113 9 145 -21 153 -29 8 -23 53
7 50 16 -2 23 6 32 35 11 38 6 88 -9 97 -4 3 -27 -35 -50 -85 -23 -49 -46 -90
-50 -90 -14 0 -11 17 16 80 29 69 30 77 10 60 -27 -23 -16 8 16 45 35 40 25
49 -11 10 -13 -14 -31 -25 -41 -25 -9 0 -43 -29 -75 -65 -59 -68 -73 -76 -53
-31 11 24 9 29 -15 55 -16 16 -56 44 -90 62 -33 18 -73 42 -88 53 -51 37 -25
64 28 30 13 -9 27 -14 30 -11 3 3 -15 17 -40 32 -46 27 -96 78 -96 97 0 6 9
-1 20 -15 11 -14 45 -39 77 -57z m-22 -119 c3 -6 39 -29 80 -52 41 -23 76 -48
79 -55 3 -7 2 -24 -2 -39 l-7 -26 -40 36 c-30 26 -46 34 -65 31 -21 -4 -31 3
-62 46 -20 28 -35 55 -32 60 7 11 41 10 49 -1z m-77 -45 c22 -24 44 -52 50
-62 8 -16 32 -223 32 -280 0 -13 -17 -1 -59 40 l-58 58 -7 81 c-3 45 -9 110
-13 145 -3 39 -2 62 4 62 6 0 29 -20 51 -44z m-64 -123 c6 -82 -5 -115 -18
-50 -5 22 -9 28 -15 19 -6 -10 -12 -7 -24 12 -23 34 -21 49 9 98 24 37 28 40
34 23 4 -11 10 -57 14 -102z m431 22 c-30 -68 -29 -66 -9 -58 19 7 17 -13 -10
-82 -8 -22 -15 -56 -16 -75 l0 -35 -34 40 c-31 36 -34 45 -29 85 2 25 9 59 14
77 11 36 99 134 106 117 2 -6 -8 -37 -22 -69z m-176 -47 c34 -40 61 -79 61
-87 -1 -18 -96 82 -124 129 -31 53 0 32 63 -42z m724 45 c51 -28 56 -41 50
-118 -6 -90 -10 -102 -26 -86 -6 6 -14 48 -18 91 -4 65 -10 85 -29 105 -28 29
-20 32 23 8z m-1358 -4 c4 -6 -2 -13 -14 -16 -12 -3 -21 -8 -21 -12 1 -15 38
-50 70 -66 19 -10 50 -29 67 -43 20 -15 53 -27 85 -31 l51 -6 -41 -48 c-23
-27 -42 -54 -42 -61 0 -21 -27 -40 -33 -24 -9 26 -18 -2 -29 -93 -11 -86 -24
-117 -49 -119 -3 0 -14 27 -24 61 -10 34 -32 82 -49 108 -26 38 -32 59 -36
126 -6 89 -9 81 -29 -77 -12 -95 -19 -118 -31 -118 -19 0 -70 53 -70 73 0 24
55 147 66 147 4 0 4 -24 1 -52 -6 -51 -6 -52 8 -23 7 17 16 47 20 68 6 30 4
37 -9 37 -20 0 -21 14 -1 30 8 6 21 36 30 65 16 56 37 85 60 85 8 0 17 -5 20
-11z m554 -38 c12 -21 45 -271 37 -278 -21 -21 -55 140 -56 265 0 37 5 40 19
13z m46 -43 c9 -37 34 -263 29 -267 -2 -2 -6 -2 -8 0 -8 9 -41 289 -34 289 4
0 10 -10 13 -22z m-325 -20 c11 -18 20 -41 20 -50 0 -10 -22 -43 -50 -73 -27
-30 -50 -62 -50 -71 0 -8 -9 -32 -20 -53 -11 -22 -21 -68 -24 -107 -5 -65 -5
-67 7 -32 21 62 27 55 24 -28 l-2 -79 28 -3 c15 -2 27 -8 27 -13 0 -22 -32
-19 -86 6 -49 23 -55 29 -49 48 4 12 15 65 25 117 21 114 41 160 97 224 45 51
53 80 28 112 -17 23 -19 34 -5 34 6 0 19 -15 30 -32z m1205 -60 c15 -53 30
-129 33 -175 4 -69 1 -89 -18 -136 -18 -43 -29 -57 -49 -62 -14 -3 -37 -19
-51 -34 -16 -19 -38 -31 -62 -34 l-38 -6 0 37 c0 20 6 80 14 132 8 52 17 125
21 163 8 74 25 101 25 40 0 -28 3 -34 10 -23 15 23 12 -63 -5 -140 -17 -76
-20 -143 -5 -120 9 14 32 141 45 243 10 76 25 44 26 -56 1 -51 4 -103 8 -117
22 -73 26 210 5 342 -12 71 13 39 41 -54z m-574 55 c9 -24 5 -90 -8 -137 -5
-17 -10 -14 -39 20 -38 45 -41 60 -17 109 20 42 49 46 64 8z m-447 -133 c17
-14 64 -56 103 -95 64 -61 73 -74 73 -105 0 -23 -9 -49 -26 -71 -20 -26 -24
-42 -21 -71 6 -42 -15 -56 -45 -30 -14 11 -20 11 -40 0 -28 -15 -58 -19 -58
-6 0 4 -12 13 -27 19 -22 8 -36 7 -62 -6 -24 -11 -37 -13 -44 -6 -6 6 -18 11
-28 11 -9 0 -28 11 -43 25 -21 20 -26 33 -26 74 0 28 -5 62 -12 76 -9 21 -8
32 10 69 12 24 22 47 22 51 0 5 17 29 38 54 51 61 65 88 58 115 -10 42 5 35
52 -22 25 -31 60 -68 76 -82z m704 99 c41 -11 86 -26 101 -34 29 -14 57 -43
50 -50 -3 -2 -49 12 -104 30 -55 19 -121 38 -148 41 -49 7 -63 16 -52 34 8 12
49 7 153 -21z m-470 -34 c44 -54 73 -125 71 -174 l-1 -26 -14 30 c-13 28 -14
26 -8 -39 l7 -69 -52 43 c-42 35 -51 49 -51 75 0 18 -3 73 -6 123 -4 53 -3 92
2 92 5 -1 29 -25 52 -55z m535 -113 c3 -43 9 -94 13 -115 6 -33 5 -37 -11 -31
-15 6 -15 2 4 -34 28 -55 27 -72 -4 -72 -27 0 -45 27 -75 116 -15 43 -18 71
-13 142 l6 89 37 -9 37 -10 6 -76z m-135 36 c2 -28 -1 -48 -7 -48 -14 0 -38
38 -47 73 -6 27 -5 28 22 25 27 -3 29 -6 32 -50z m-78 -19 c0 -33 4 -41 24
-49 34 -13 46 -40 46 -102 0 -61 -14 -92 -30 -68 -5 8 -10 25 -10 36 0 12 -7
28 -16 35 -15 12 -16 11 -10 -8 4 -12 3 -24 -2 -27 -14 -8 -22 45 -22 146 0
57 4 87 10 83 6 -3 10 -24 10 -46z m284 -132 c-15 -101 -20 -115 -26 -87 -9
45 -2 111 20 178 25 79 27 45 6 -91z m-434 8 c19 -41 38 -165 26 -165 -11 0
-100 70 -108 84 -4 7 -4 52 -1 101 l6 88 29 -34 c16 -19 38 -52 48 -74z m-894
-50 c9 -25 14 -48 11 -51 -10 -11 -35 4 -53 31 -14 21 -15 31 -5 51 14 32 25
25 47 -31z m755 -7 c39 -31 39 -32 39 -103 0 -39 -3 -74 -6 -77 -3 -3 -23 6
-45 20 l-39 26 0 83 c0 46 3 83 6 83 3 0 23 -14 45 -32z m248 -77 c34 -49 61
-92 61 -95 0 -13 -27 -5 -61 18 -29 20 -39 36 -52 83 -17 59 -21 83 -13 83 2
0 31 -40 65 -89z m-320 -62 c-35 -22 -49 9 -23 49 l18 27 10 -33 c7 -26 6 -36
-5 -43z m177 -15 c-11 -29 -31 -8 -34 37 l-2 44 21 -33 c11 -18 18 -39 15 -48z
m427 2 c3 -8 -6 -17 -28 -24 l-34 -10 16 24 c17 27 38 31 46 10z"/>
<path d="M817 1853 c-11 -10 -8 -63 3 -63 6 0 10 16 10 35 0 36 -2 40 -13 28z"/>
<path d="M857 1787 c-4 -10 -7 -31 -6 -45 l0 -27 10 25 c5 13 8 33 7 45 -3 19
-4 19 -11 2z"/>
<path d="M901 1689 c-23 -37 -26 -49 -13 -49 10 0 45 71 38 77 -3 3 -14 -10
-25 -28z"/>
<path d="M843 1555 c5 -15 50 -17 70 -3 15 11 12 13 -28 13 -25 0 -44 -4 -42
-10z"/>
<path d="M683 1377 c2 -37 7 -70 10 -73 7 -7 67 24 67 34 0 4 -10 12 -22 17
-13 6 -28 24 -33 42 -19 57 -28 49 -22 -20z"/>
<path d="M1565 2320 c-4 -6 6 -10 22 -10 16 0 39 -7 51 -16 13 -9 22 -11 22
-4 0 6 -16 18 -35 26 -41 17 -52 17 -60 4z"/>
<path d="M1339 2300 c-13 -10 -19 -19 -12 -20 6 0 15 5 18 10 3 6 21 10 38 10
18 0 39 5 47 10 11 7 4 10 -26 10 -27 0 -50 -7 -65 -20z"/>
<path d="M1540 2286 c0 -8 12 -28 26 -45 19 -23 34 -31 59 -31 42 0 51 14 31
45 -23 35 -116 59 -116 31z"/>
<path d="M1379 2283 c-33 -5 -63 -37 -56 -57 10 -26 55 -31 80 -8 12 11 32 25
45 31 19 10 21 15 11 27 -11 14 -27 15 -80 7z"/>
<path d="M1730 2169 c0 -28 13 -59 21 -53 14 8 10 40 -6 54 -12 10 -15 10 -15
-1z"/>
<path d="M1290 2158 c0 -22 40 -104 51 -106 21 -4 66 33 85 70 22 42 11 46
-15 5 -36 -58 -66 -57 -91 3 -7 17 -16 30 -21 30 -5 0 -9 -1 -9 -2z"/>
<path d="M1474 2152 c-16 -10 -35 -50 -27 -55 5 -2 29 -2 56 1 52 4 61 21 25
46 -25 18 -37 19 -54 8z"/>
<path d="M1560 2137 c0 -15 50 -86 67 -95 21 -12 53 2 53 23 0 13 -3 13 -21 3
-19 -12 -24 -9 -60 32 -21 25 -39 42 -39 37z"/>
<path d="M1455 2041 c-6 -6 -23 -17 -40 -25 -29 -16 -28 -16 52 -16 45 0 90
-3 100 -6 12 -4 6 5 -15 27 -30 31 -34 32 -43 17 -5 -10 -17 -18 -26 -18 -13
0 -13 3 -3 15 10 12 10 15 -2 15 -8 0 -18 -4 -23 -9z"/>
<path d="M1453 1971 c-29 -25 -20 -31 44 -31 53 0 64 8 40 28 -25 21 -61 22
-84 3z"/>
</g>
</svg>
